<svg xmlns="http://www.w3.org/2000/svg" xmlns:xlink="http://www.w3.org/1999/xlink" class="plt-container" width="600.0" height="799.9999999999999">
  <style type="text/css">
  .plt-container {
   font-family: Lucida Grande, sans-serif;
   user-select: none;
   -webkit-user-select: none;
   -moz-user-select: none;
   -ms-user-select: none;
}
text {
   text-rendering: optimizeLegibility;
}
#pCuVKbG .plot-title {
   fill: #474747;
   font-family: Lucida Grande, sans-serif;
   font-size: 16.0px;
   font-weight: normal;
   font-style: normal;   
}
#pCuVKbG .plot-subtitle {
   fill: #474747;
   font-family: Lucida Grande, sans-serif;
   font-size: 15.0px;
   font-weight: normal;
   font-style: normal;   
}
#pCuVKbG .plot-caption {
   fill: #474747;
   font-family: Lucida Grande, sans-serif;
   font-size: 13.0px;
   font-weight: normal;
   font-style: normal;   
}
#pCuVKbG .legend-title {
   fill: #474747;
   font-family: Lucida Grande, sans-serif;
   font-size: 15.0px;
   font-weight: normal;
   font-style: normal;   
}
#pCuVKbG .legend-item {
   fill: #474747;
   font-family: Lucida Grande, sans-serif;
   font-size: 13.0px;
   font-weight: normal;
   font-style: normal;   
}
#pCuVKbG .axis-title-x {
   fill: #474747;
   font-family: Lucida Grande, sans-serif;
   font-size: 15.0px;
   font-weight: normal;
   font-style: normal;   
}
#pCuVKbG .axis-text-x {
   fill: #474747;
   font-family: Lucida Grande, sans-serif;
   font-size: 13.0px;
   font-weight: normal;
   font-style: normal;   
}
#dBgRMWK .axis-tooltip-text-x {
   fill: #ffffff;
   font-family: Lucida Grande, sans-serif;
   font-size: 13.0px;
   font-weight: normal;
   font-style: normal;   
}
#pCuVKbG .axis-title-y {
   fill: #474747;
   font-family: Lucida Grande, sans-serif;
   font-size: 15.0px;
   font-weight: normal;
   font-style: normal;   
}
#pCuVKbG .axis-text-y {
   fill: #474747;
   font-family: Lucida Grande, sans-serif;
   font-size: 13.0px;
   font-weight: normal;
   font-style: normal;   
}
#dBgRMWK .axis-tooltip-text-y {
   fill: #ffffff;
   font-family: Lucida Grande, sans-serif;
   font-size: 13.0px;
   font-weight: normal;
   font-style: normal;   
}
#pCuVKbG .facet-strip-text-x {
   fill: #474747;
   font-family: Lucida Grande, sans-serif;
   font-size: 13.0px;
   font-weight: normal;
   font-style: normal;   
}
#pCuVKbG .facet-strip-text-y {
   fill: #474747;
   font-family: Lucida Grande, sans-serif;
   font-size: 13.0px;
   font-weight: normal;
   font-style: normal;   
}
#dBgRMWK .tooltip-text {
   fill: #474747;
   font-family: Lucida Grande, sans-serif;
   font-size: 13.0px;
   font-weight: normal;
   font-style: normal;   
}
#dBgRMWK .tooltip-title {
   fill: #474747;
   font-family: Lucida Grande, sans-serif;
   font-size: 13.0px;
   font-weight: bold;
   font-style: normal;   
}
#dBgRMWK .tooltip-label {
   fill: #474747;
   font-family: Lucida Grande, sans-serif;
   font-size: 13.0px;
   font-weight: bold;
   font-style: normal;   
}

  </style>
  <g id="pCuVKbG">
    <rect x="0.0" y="0.0" height="799.9999999999999" width="600.0" stroke="rgb(71,71,71)" stroke-opacity="1.0" stroke-width="0.0" fill="rgb(255,255,255)" fill-opacity="1.0">
    </rect>
    <g transform="translate(23.0 10.000000000000057 ) ">
      <g transform="translate(247.56371710447337 15.0 ) ">
        <text class="facet-strip-text-x" text-anchor="middle" dy="0.35em">
        Biscoe
        </text>
      </g>
      <g transform="translate(42.99591213121782 241.3333333333333 ) ">
        <line x1="69.02981400484259" y1="-0.0" x2="69.02981400484259" y2="-211.3333333333333" stroke="rgb(233,233,233)" stroke-opacity="1.0" stroke-width="1.0">
        </line>
        <line x1="132.07074003666253" y1="-0.0" x2="132.07074003666253" y2="-211.3333333333333" stroke="rgb(233,233,233)" stroke-opacity="1.0" stroke-width="1.0">
        </line>
        <line x1="195.11166606848246" y1="-0.0" x2="195.11166606848246" y2="-211.3333333333333" stroke="rgb(233,233,233)" stroke-opacity="1.0" stroke-width="1.0">
        </line>
        <line x1="258.1525921003024" y1="-0.0" x2="258.1525921003024" y2="-211.3333333333333" stroke="rgb(233,233,233)" stroke-opacity="1.0" stroke-width="1.0">
        </line>
        <line x1="321.19351813212234" y1="-0.0" x2="321.19351813212234" y2="-211.3333333333333" stroke="rgb(233,233,233)" stroke-opacity="1.0" stroke-width="1.0">
        </line>
        <line x1="384.23444416394227" y1="-0.0" x2="384.23444416394227" y2="-211.3333333333333" stroke="rgb(233,233,233)" stroke-opacity="1.0" stroke-width="1.0">
        </line>
      </g>
      <g transform="translate(42.99591213121782 30.0 ) ">
        <line x1="0.0" y1="185.71717171717168" x2="409.13560994651107" y2="185.71717171717168" stroke="rgb(233,233,233)" stroke-opacity="1.0" stroke-width="1.0">
        </line>
        <line x1="0.0" y1="132.35016835016833" x2="409.13560994651107" y2="132.35016835016833" stroke="rgb(233,233,233)" stroke-opacity="1.0" stroke-width="1.0">
        </line>
        <line x1="0.0" y1="78.98316498316501" x2="409.13560994651107" y2="78.98316498316501" stroke="rgb(233,233,233)" stroke-opacity="1.0" stroke-width="1.0">
        </line>
        <line x1="0.0" y1="25.616161616161605" x2="409.13560994651107" y2="25.616161616161605" stroke="rgb(233,233,233)" stroke-opacity="1.0" stroke-width="1.0">
        </line>
        <g transform="translate(0.0 185.71717171717168 ) ">
          <g transform="translate(-3.0 0.0 ) ">
            <text class="axis-text-y" text-anchor="end" dy="0.35em">
            3,000
            </text>
          </g>
        </g>
        <g transform="translate(0.0 132.35016835016833 ) ">
          <g transform="translate(-3.0 0.0 ) ">
            <text class="axis-text-y" text-anchor="end" dy="0.35em">
            4,000
            </text>
          </g>
        </g>
        <g transform="translate(0.0 78.98316498316501 ) ">
          <g transform="translate(-3.0 0.0 ) ">
            <text class="axis-text-y" text-anchor="end" dy="0.35em">
            5,000
            </text>
          </g>
        </g>
        <g transform="translate(0.0 25.616161616161605 ) ">
          <g transform="translate(-3.0 0.0 ) ">
            <text class="axis-text-y" text-anchor="end" dy="0.35em">
            6,000
            </text>
          </g>
        </g>
      </g>
      <g transform="translate(42.99591213121782 30.0 ) " clip-path="url(#cPWGz6o)" clip-bounds-jfx="[rect (0.0, 0.0), (409.13560994651107, 211.3333333333333)]">
        <defs>
          <clipPath id="cPWGz6o">
            <rect x="0.0" y="0.0" width="409.13560994651107" height="211.3333333333333">
            </rect>
          </clipPath>
        </defs>
        <g>
          
          <g >
            <path fill="#e41a1c" stroke="#e41a1c" stroke-opacity="0.0" stroke-width="0.0" d="M31.205258385750767 161.5124865378817 L31.205258385750767 161.5124865378817 L34.505258385750764 167.22825420285898 L27.905258385750766 167.22825420285898 Z" />
            <path fill="#e41a1c" stroke="#e41a1c" stroke-opacity="0.0" stroke-width="0.0" d="M69.02981400484259 150.83908586448104 L69.02981400484259 150.83908586448104 L72.32981400484259 156.5548535294583 L65.7298140048426 156.5548535294583 Z" />
            <path fill="#e41a1c" stroke="#e41a1c" stroke-opacity="0.0" stroke-width="0.0" d="M125.76664743348056 140.16568519108034 L125.76664743348056 140.16568519108034 L129.06664743348057 145.88145285605762 L122.46664743348056 145.88145285605762 Z" />
            <path fill="#e41a1c" stroke="#e41a1c" stroke-opacity="0.0" stroke-width="0.0" d="M100.55027702075267 132.16063468602985 L100.55027702075267 132.16063468602985 L103.85027702075267 137.87640235100713 L97.25027702075268 137.87640235100713 Z" />
            <path fill="#e41a1c" stroke="#e41a1c" stroke-opacity="0.0" stroke-width="0.0" d="M69.02981400484259 140.16568519108034 L69.02981400484259 140.16568519108034 L72.32981400484259 145.88145285605762 L65.7298140048426 145.88145285605762 Z" />
            <path fill="#e41a1c" stroke="#e41a1c" stroke-opacity="0.0" stroke-width="0.0" d="M113.15846222711662 140.16568519108034 L113.15846222711662 140.16568519108034 L116.45846222711661 145.88145285605762 L109.85846222711662 145.88145285605762 Z" />
            <path fill="#e41a1c" stroke="#e41a1c" stroke-opacity="0.0" stroke-width="0.0" d="M87.9420918143885 153.5074360328312 L87.9420918143885 153.5074360328312 L91.2420918143885 159.2232036978085 L84.64209181438851 159.2232036978085 Z" />
            <path fill="#e41a1c" stroke="#e41a1c" stroke-opacity="0.0" stroke-width="0.0" d="M113.15846222711662 172.18588721128236 L113.15846222711662 172.18588721128236 L116.45846222711661 177.90165487625964 L109.85846222711662 177.90165487625964 Z" />
            <path fill="#e41a1c" stroke="#e41a1c" stroke-opacity="0.0" stroke-width="0.0" d="M18.597073179386598 174.85423737963254 L18.597073179386598 174.85423737963254 L21.8970731793866 180.57000504460981 L15.297073179386597 180.57000504460981 Z" />
            <path fill="#e41a1c" stroke="#e41a1c" stroke-opacity="0.0" stroke-width="0.0" d="M69.02981400484259 132.16063468602985 L69.02981400484259 132.16063468602985 L72.32981400484259 137.87640235100713 L65.7298140048426 137.87640235100713 Z" />
            <path fill="#e41a1c" stroke="#e41a1c" stroke-opacity="0.0" stroke-width="0.0" d="M106.85436962393464 156.17578620118135 L106.85436962393464 156.17578620118135 L110.15436962393464 161.89155386615863 L103.55436962393465 161.89155386615863 Z" />
            <path fill="#e41a1c" stroke="#e41a1c" stroke-opacity="0.0" stroke-width="0.0" d="M119.46255483029859 113.48218350757868 L119.46255483029859 113.48218350757868 L122.76255483029858 119.19795117255597 L116.16255483029859 119.19795117255597 Z" />
            <path fill="#e41a1c" stroke="#e41a1c" stroke-opacity="0.0" stroke-width="0.0" d="M132.07074003666253 158.84413636953153 L132.07074003666253 158.84413636953153 L135.3707400366625 164.5599040345088 L128.77074003666252 164.5599040345088 Z" />
            <path fill="#e41a1c" stroke="#e41a1c" stroke-opacity="0.0" stroke-width="0.0" d="M195.11166606848246 126.82393434932952 L195.11166606848246 126.82393434932952 L198.41166606848245 132.5397020143068 L191.81166606848245 132.5397020143068 Z" />
            <path fill="#e41a1c" stroke="#e41a1c" stroke-opacity="0.0" stroke-width="0.0" d="M113.15846222711662 188.19598822138337 L113.15846222711662 188.19598822138337 L116.45846222711661 193.91175588636065 L109.85846222711662 193.91175588636065 Z" />
            <path fill="#e41a1c" stroke="#e41a1c" stroke-opacity="0.0" stroke-width="0.0" d="M138.3748326398445 145.5023855277807 L138.3748326398445 145.5023855277807 L141.67483263984448 151.21815319275797 L135.0748326398445 151.21815319275797 Z" />
            <path fill="#e41a1c" stroke="#e41a1c" stroke-opacity="0.0" stroke-width="0.0" d="M106.85436962393464 153.5074360328312 L106.85436962393464 153.5074360328312 L110.15436962393464 159.2232036978085 L103.55436962393465 159.2232036978085 Z" />
            <path fill="#e41a1c" stroke="#e41a1c" stroke-opacity="0.0" stroke-width="0.0" d="M150.98301784620844 140.16568519108034 L150.98301784620844 140.16568519108034 L154.28301784620842 145.88145285605762 L147.68301784620843 145.88145285605762 Z" />
            <path fill="#e41a1c" stroke="#e41a1c" stroke-opacity="0.0" stroke-width="0.0" d="M75.33390660802456 190.86433838973355 L75.33390660802456 190.86433838973355 L78.63390660802456 196.58010605471082 L72.03390660802457 196.58010605471082 Z" />
            <path fill="#e41a1c" stroke="#e41a1c" stroke-opacity="0.0" stroke-width="0.0" d="M157.2871104493904 142.83403535943052 L157.2871104493904 142.83403535943052 L160.5871104493904 148.5498030244078 L153.9871104493904 148.5498030244078 Z" />
            <path fill="#e41a1c" stroke="#e41a1c" stroke-opacity="0.0" stroke-width="0.0" d="M100.55027702075267 174.85423737963254 L100.55027702075267 174.85423737963254 L103.85027702075267 180.57000504460981 L97.25027702075268 180.57000504460981 Z" />
            <path fill="#e41a1c" stroke="#e41a1c" stroke-opacity="0.0" stroke-width="0.0" d="M163.5912030525726 108.14548317087836 L163.5912030525726 108.14548317087836 L166.8912030525726 113.86125083585566 L160.2912030525726 113.86125083585566 Z" />
            <path fill="#e41a1c" stroke="#e41a1c" stroke-opacity="0.0" stroke-width="0.0" d="M100.55027702075267 150.83908586448104 L100.55027702075267 150.83908586448104 L103.85027702075267 156.5548535294583 L97.25027702075268 156.5548535294583 Z" />
            <path fill="#e41a1c" stroke="#e41a1c" stroke-opacity="0.0" stroke-width="0.0" d="M144.67892524302647 126.82393434932952 L144.67892524302647 126.82393434932952 L147.97892524302645 132.5397020143068 L141.37892524302646 132.5397020143068 Z" />
            <path fill="#e41a1c" stroke="#e41a1c" stroke-opacity="0.0" stroke-width="0.0" d="M94.2461844175707 190.86433838973355 L94.2461844175707 190.86433838973355 L97.5461844175707 196.58010605471082 L90.9461844175707 196.58010605471082 Z" />
            <path fill="#e41a1c" stroke="#e41a1c" stroke-opacity="0.0" stroke-width="0.0" d="M144.67892524302647 132.16063468602985 L144.67892524302647 132.16063468602985 L147.97892524302645 137.87640235100713 L141.37892524302646 137.87640235100713 Z" />
            <path fill="#e41a1c" stroke="#e41a1c" stroke-opacity="0.0" stroke-width="0.0" d="M163.5912030525726 164.18083670623187 L163.5912030525726 164.18083670623187 L166.8912030525726 169.89660437120915 L160.2912030525726 169.89660437120915 Z" />
            <path fill="#e41a1c" stroke="#e41a1c" stroke-opacity="0.0" stroke-width="0.0" d="M119.46255483029859 124.15558418097937 L119.46255483029859 124.15558418097937 L122.76255483029858 129.87135184595667 L116.16255483029859 129.87135184595667 Z" />
            <path fill="#e41a1c" stroke="#e41a1c" stroke-opacity="0.0" stroke-width="0.0" d="M144.67892524302647 144.1682104436056 L144.67892524302647 144.1682104436056 L147.97892524302645 149.88397810858288 L141.37892524302646 149.88397810858288 Z" />
            <path fill="#e41a1c" stroke="#e41a1c" stroke-opacity="0.0" stroke-width="0.0" d="M214.02394387802838 90.80120707660227 L214.02394387802838 90.80120707660227 L217.32394387802836 96.51697474157956 L210.72394387802836 96.51697474157956 Z" />
            <path fill="#e41a1c" stroke="#e41a1c" stroke-opacity="0.0" stroke-width="0.0" d="M87.9420918143885 178.8567626321578 L87.9420918143885 178.8567626321578 L91.2420918143885 184.57253029713507 L84.64209181438851 184.57253029713507 Z" />
            <path fill="#e41a1c" stroke="#e41a1c" stroke-opacity="0.0" stroke-width="0.0" d="M132.07074003666253 116.15053367592886 L132.07074003666253 116.15053367592886 L135.3707400366625 121.86630134090615 L128.77074003666252 121.86630134090615 Z" />
            <path fill="#e41a1c" stroke="#e41a1c" stroke-opacity="0.0" stroke-width="0.0" d="M150.98301784620844 186.8618131372083 L150.98301784620844 186.8618131372083 L154.28301784620842 192.57758080218557 L147.68301784620843 192.57758080218557 Z" />
            <path fill="#e41a1c" stroke="#e41a1c" stroke-opacity="0.0" stroke-width="0.0" d="M94.2461844175707 153.5074360328312 L94.2461844175707 153.5074360328312 L97.5461844175707 159.2232036978085 L90.9461844175707 159.2232036978085 Z" />
            <path fill="#e41a1c" stroke="#e41a1c" stroke-opacity="0.0" stroke-width="0.0" d="M188.8075734653005 142.83403535943052 L188.8075734653005 142.83403535943052 L192.10757346530048 148.5498030244078 L185.50757346530048 148.5498030244078 Z" />
            <path fill="#e41a1c" stroke="#e41a1c" stroke-opacity="0.0" stroke-width="0.0" d="M132.07074003666253 134.82898485438002 L132.07074003666253 134.82898485438002 L135.3707400366625 140.5447525193573 L128.77074003666252 140.5447525193573 Z" />
            <path fill="#e41a1c" stroke="#e41a1c" stroke-opacity="0.0" stroke-width="0.0" d="M75.33390660802456 173.52006229545745 L75.33390660802456 173.52006229545745 L78.63390660802456 179.23582996043473 L72.03390660802457 179.23582996043473 Z" />
            <path fill="#e41a1c" stroke="#e41a1c" stroke-opacity="0.0" stroke-width="0.0" d="M176.19938825893655 88.1328569082521 L176.19938825893655 88.1328569082521 L179.49938825893653 93.84862457322939 L172.89938825893654 93.84862457322939 Z" />
            <path fill="#e41a1c" stroke="#e41a1c" stroke-opacity="0.0" stroke-width="0.0" d="M182.50348086211852 138.83151010690528 L182.50348086211852 138.83151010690528 L185.8034808621185 144.54727777188256 L179.2034808621185 144.54727777188256 Z" />
            <path fill="#e41a1c" stroke="#e41a1c" stroke-opacity="0.0" stroke-width="0.0" d="M138.3748326398445 97.4720824974777 L138.3748326398445 97.4720824974777 L141.67483263984448 103.18785016245499 L135.0748326398445 103.18785016245499 Z" />
            <path fill="#e41a1c" stroke="#e41a1c" stroke-opacity="0.0" stroke-width="0.0" d="M150.98301784620844 172.18588721128236 L150.98301784620844 172.18588721128236 L154.28301784620842 177.90165487625964 L147.68301784620843 177.90165487625964 Z" />
            <path fill="#e41a1c" stroke="#e41a1c" stroke-opacity="0.0" stroke-width="0.0" d="M176.19938825893655 114.81635859175377 L176.19938825893655 114.81635859175377 L179.49938825893653 120.53212625673106 L172.89938825893654 120.53212625673106 Z" />
            <path fill="#e41a1c" stroke="#e41a1c" stroke-opacity="0.0" stroke-width="0.0" d="M138.3748326398445 134.82898485438002 L138.3748326398445 134.82898485438002 L141.67483263984448 140.5447525193573 L135.0748326398445 140.5447525193573 Z" />
            <path fill="#e41a1c" stroke="#e41a1c" stroke-opacity="0.0" stroke-width="0.0" d="M169.89529565575458 125.48975926515446 L169.89529565575458 125.48975926515446 L173.19529565575456 131.20552693013175 L166.59529565575457 131.20552693013175 Z" />
            <path fill="#377eb8" stroke="#377eb8" stroke-opacity="0.0" stroke-width="0.0" d="M264.45668470348437 102.80878283417802 L264.45668470348437 102.80878283417802 L267.7566847034844 108.52455049915531 L261.15668470348436 108.52455049915531 Z" />
            <path fill="#377eb8" stroke="#377eb8" stroke-opacity="0.0" stroke-width="0.0" d="M384.23444416394227 38.768378793774 L384.23444416394227 38.768378793774 L387.5344441639423 44.4841464587513 L380.93444416394226 44.4841464587513 Z" />
            <path fill="#377eb8" stroke="#377eb8" stroke-opacity="0.0" stroke-width="0.0" d="M258.1525921003024 105.47713300252819 L258.1525921003024 105.47713300252819 L261.4525921003024 111.19290066750548 L254.8525921003024 111.19290066750548 Z" />
            <path fill="#377eb8" stroke="#377eb8" stroke-opacity="0.0" stroke-width="0.0" d="M308.5853329257584 38.768378793774 L308.5853329257584 38.768378793774 L311.8853329257584 44.4841464587513 L305.2853329257584 44.4841464587513 Z" />
            <path fill="#377eb8" stroke="#377eb8" stroke-opacity="0.0" stroke-width="0.0" d="M289.67305511621225 54.77847980387498 L289.67305511621225 54.77847980387498 L292.97305511621227 60.49424746885228 L286.37305511621224 60.49424746885228 Z" />
            <path fill="#377eb8" stroke="#377eb8" stroke-opacity="0.0" stroke-width="0.0" d="M258.1525921003024 100.14043266582784 L258.1525921003024 100.14043266582784 L261.4525921003024 105.85620033080514 L254.8525921003024 105.85620033080514 Z" />
            <path fill="#377eb8" stroke="#377eb8" stroke-opacity="0.0" stroke-width="0.0" d="M264.45668470348437 86.79868182407701 L264.45668470348437 86.79868182407701 L267.7566847034844 92.5144494890543 L261.15668470348436 92.5144494890543 Z" />
            <path fill="#377eb8" stroke="#377eb8" stroke-opacity="0.0" stroke-width="0.0" d="M314.88942552894036 65.45188047727568 L314.88942552894036 65.45188047727568 L318.1894255289404 71.16764814225297 L311.58942552894035 71.16764814225297 Z" />
            <path fill="#377eb8" stroke="#377eb8" stroke-opacity="0.0" stroke-width="0.0" d="M251.84849949712043 108.14548317087836 L251.84849949712043 108.14548317087836 L255.1484994971204 113.86125083585566 L248.54849949712042 113.86125083585566 Z" />
            <path fill="#377eb8" stroke="#377eb8" stroke-opacity="0.0" stroke-width="0.0" d="M289.67305511621225 68.12023064562585 L289.67305511621225 68.12023064562585 L292.97305511621227 73.83599831060315 L286.37305511621224 73.83599831060315 Z" />
            <path fill="#377eb8" stroke="#377eb8" stroke-opacity="0.0" stroke-width="0.0" d="M283.3689625130303 94.80373232912753 L283.3689625130303 94.80373232912753 L286.6689625130303 100.51949999410482 L280.06896251303027 100.51949999410482 Z" />
            <path fill="#377eb8" stroke="#377eb8" stroke-opacity="0.0" stroke-width="0.0" d="M295.9771477193942 46.77342929882452 L295.9771477193942 46.77342929882452 L299.27714771939424 52.48919696380182 L292.6771477193942 52.48919696380182 Z" />
            <path fill="#377eb8" stroke="#377eb8" stroke-opacity="0.0" stroke-width="0.0" d="M283.3689625130303 94.80373232912753 L283.3689625130303 94.80373232912753 L286.6689625130303 100.51949999410482 L280.06896251303027 100.51949999410482 Z" />
            <path fill="#377eb8" stroke="#377eb8" stroke-opacity="0.0" stroke-width="0.0" d="M277.0648699098483 30.76332828872348 L277.0648699098483 30.76332828872348 L280.3648699098483 36.47909595370077 L273.7648699098483 36.47909595370077 Z" />
            <path fill="#377eb8" stroke="#377eb8" stroke-opacity="0.0" stroke-width="0.0" d="M258.1525921003024 118.81888384427903 L258.1525921003024 118.81888384427903 L261.4525921003024 124.53465150925632 L254.8525921003024 124.53465150925632 Z" />
            <path fill="#377eb8" stroke="#377eb8" stroke-opacity="0.0" stroke-width="0.0" d="M302.2812403225762 30.76332828872348 L302.2812403225762 30.76332828872348 L305.5812403225762 36.47909595370077 L298.9812403225762 36.47909595370077 Z" />
            <path fill="#377eb8" stroke="#377eb8" stroke-opacity="0.0" stroke-width="0.0" d="M258.1525921003024 121.4872340126292 L258.1525921003024 121.4872340126292 L261.4525921003024 127.2030016776065 L254.8525921003024 127.2030016776065 Z" />
            <path fill="#377eb8" stroke="#377eb8" stroke-opacity="0.0" stroke-width="0.0" d="M327.4976107353043 6.748176773571975 L327.4976107353043 6.748176773571975 L330.7976107353043 12.46394443854927 L324.1976107353043 12.46394443854927 Z" />
            <path fill="#377eb8" stroke="#377eb8" stroke-opacity="0.0" stroke-width="0.0" d="M251.84849949712043 86.79868182407701 L251.84849949712043 86.79868182407701 L255.1484994971204 92.5144494890543 L248.54849949712042 92.5144494890543 Z" />
            <path fill="#377eb8" stroke="#377eb8" stroke-opacity="0.0" stroke-width="0.0" d="M333.8017033384863 57.44682997222515 L333.8017033384863 57.44682997222515 L337.1017033384863 63.16259763720245 L330.50170333848627 63.16259763720245 Z" />
            <path fill="#377eb8" stroke="#377eb8" stroke-opacity="0.0" stroke-width="0.0" d="M308.5853329257584 38.768378793774 L308.5853329257584 38.768378793774 L311.8853329257584 44.4841464587513 L305.2853329257584 44.4841464587513 Z" />
            <path fill="#377eb8" stroke="#377eb8" stroke-opacity="0.0" stroke-width="0.0" d="M289.67305511621225 76.12528115067637 L289.67305511621225 76.12528115067637 L292.97305511621227 81.84104881565366 L286.37305511621224 81.84104881565366 Z" />
            <path fill="#377eb8" stroke="#377eb8" stroke-opacity="0.0" stroke-width="0.0" d="M277.0648699098483 108.14548317087836 L277.0648699098483 108.14548317087836 L280.3648699098483 113.86125083585566 L273.7648699098483 113.86125083585566 Z" />
            <path fill="#377eb8" stroke="#377eb8" stroke-opacity="0.0" stroke-width="0.0" d="M289.67305511621225 73.4569309823262 L289.67305511621225 73.4569309823262 L292.97305511621227 79.17269864730349 L286.37305511621224 79.17269864730349 Z" />
            <path fill="#377eb8" stroke="#377eb8" stroke-opacity="0.0" stroke-width="0.0" d="M289.67305511621225 76.12528115067637 L289.67305511621225 76.12528115067637 L292.97305511621227 81.84104881565366 L286.37305511621224 81.84104881565366 Z" />
            <path fill="#377eb8" stroke="#377eb8" stroke-opacity="0.0" stroke-width="0.0" d="M289.67305511621225 70.78858081397603 L289.67305511621225 70.78858081397603 L292.97305511621227 76.50434847895332 L286.37305511621224 76.50434847895332 Z" />
            <path fill="#377eb8" stroke="#377eb8" stroke-opacity="0.0" stroke-width="0.0" d="M295.9771477193942 124.15558418097937 L295.9771477193942 124.15558418097937 L299.27714771939424 129.87135184595667 L292.6771477193942 129.87135184595667 Z" />
            <path fill="#377eb8" stroke="#377eb8" stroke-opacity="0.0" stroke-width="0.0" d="M289.67305511621225 41.43672896212417 L289.67305511621225 41.43672896212417 L292.97305511621227 47.15249662710147 L286.37305511621224 47.15249662710147 Z" />
            <path fill="#377eb8" stroke="#377eb8" stroke-opacity="0.0" stroke-width="0.0" d="M258.1525921003024 97.4720824974777 L258.1525921003024 97.4720824974777 L261.4525921003024 103.18785016245499 L254.8525921003024 103.18785016245499 Z" />
            <path fill="#377eb8" stroke="#377eb8" stroke-opacity="0.0" stroke-width="0.0" d="M321.19351813212234 46.77342929882452 L321.19351813212234 46.77342929882452 L324.49351813212235 52.48919696380182 L317.8935181321223 52.48919696380182 Z" />
            <path fill="#377eb8" stroke="#377eb8" stroke-opacity="0.0" stroke-width="0.0" d="M333.8017033384863 62.7835303089255 L333.8017033384863 62.7835303089255 L337.1017033384863 68.4992979739028 L330.50170333848627 68.4992979739028 Z" />
            <path fill="#377eb8" stroke="#377eb8" stroke-opacity="0.0" stroke-width="0.0" d="M251.84849949712043 92.13538216077735 L251.84849949712043 92.13538216077735 L255.1484994971204 97.85114982575465 L248.54849949712042 97.85114982575465 Z" />
            <path fill="#377eb8" stroke="#377eb8" stroke-opacity="0.0" stroke-width="0.0" d="M239.2403142907565 73.4569309823262 L239.2403142907565 73.4569309823262 L242.54031429075647 79.17269864730349 L235.94031429075648 79.17269864730349 Z" />
            <path fill="#377eb8" stroke="#377eb8" stroke-opacity="0.0" stroke-width="0.0" d="M384.23444416394227 20.089927615322843 L384.23444416394227 20.089927615322843 L387.5344441639423 25.805695280300135 L380.93444416394226 25.805695280300135 Z" />
            <path fill="#377eb8" stroke="#377eb8" stroke-opacity="0.0" stroke-width="0.0" d="M321.19351813212234 68.12023064562585 L321.19351813212234 68.12023064562585 L324.49351813212235 73.83599831060315 L317.8935181321223 73.83599831060315 Z" />
            <path fill="#377eb8" stroke="#377eb8" stroke-opacity="0.0" stroke-width="0.0" d="M321.19351813212234 54.77847980387498 L321.19351813212234 54.77847980387498 L324.49351813212235 60.49424746885228 L317.8935181321223 60.49424746885228 Z" />
            <path fill="#377eb8" stroke="#377eb8" stroke-opacity="0.0" stroke-width="0.0" d="M277.0648699098483 78.79363131902649 L277.0648699098483 78.79363131902649 L280.3648699098483 84.50939898400378 L273.7648699098483 84.50939898400378 Z" />
            <path fill="#377eb8" stroke="#377eb8" stroke-opacity="0.0" stroke-width="0.0" d="M314.88942552894036 62.7835303089255 L314.88942552894036 62.7835303089255 L318.1894255289404 68.4992979739028 L311.58942552894035 68.4992979739028 Z" />
            <path fill="#377eb8" stroke="#377eb8" stroke-opacity="0.0" stroke-width="0.0" d="M245.54440689393846 110.81383333922854 L245.54440689393846 110.81383333922854 L248.84440689393844 116.52960100420583 L242.24440689393845 116.52960100420583 Z" />
            <path fill="#377eb8" stroke="#377eb8" stroke-opacity="0.0" stroke-width="0.0" d="M245.54440689393846 57.44682997222515 L245.54440689393846 57.44682997222515 L248.84440689393844 63.16259763720245 L242.24440689393845 63.16259763720245 Z" />
            <path fill="#377eb8" stroke="#377eb8" stroke-opacity="0.0" stroke-width="0.0" d="M245.54440689393846 132.16063468602985 L245.54440689393846 132.16063468602985 L248.84440689393844 137.87640235100713 L242.24440689393845 137.87640235100713 Z" />
            <path fill="#377eb8" stroke="#377eb8" stroke-opacity="0.0" stroke-width="0.0" d="M352.7139811480322 38.768378793774 L352.7139811480322 38.768378793774 L356.0139811480322 44.4841464587513 L349.4139811480322 44.4841464587513 Z" />
            <path fill="#377eb8" stroke="#377eb8" stroke-opacity="0.0" stroke-width="0.0" d="M258.1525921003024 113.48218350757868 L258.1525921003024 113.48218350757868 L261.4525921003024 119.19795117255597 L254.8525921003024 119.19795117255597 Z" />
            <path fill="#377eb8" stroke="#377eb8" stroke-opacity="0.0" stroke-width="0.0" d="M295.9771477193942 89.46703199242718 L295.9771477193942 89.46703199242718 L299.27714771939424 95.18279965740447 L292.6771477193942 95.18279965740447 Z" />
            <path fill="#377eb8" stroke="#377eb8" stroke-opacity="0.0" stroke-width="0.0" d="M333.8017033384863 46.77342929882452 L333.8017033384863 46.77342929882452 L337.1017033384863 52.48919696380182 L330.50170333848627 52.48919696380182 Z" />
            <path fill="#377eb8" stroke="#377eb8" stroke-opacity="0.0" stroke-width="0.0" d="M302.2812403225762 81.46198148737666 L302.2812403225762 81.46198148737666 L305.5812403225762 87.17774915235395 L298.9812403225762 87.17774915235395 Z" />
            <path fill="#377eb8" stroke="#377eb8" stroke-opacity="0.0" stroke-width="0.0" d="M258.1525921003024 118.81888384427903 L258.1525921003024 118.81888384427903 L261.4525921003024 124.53465150925632 L254.8525921003024 124.53465150925632 Z" />
            <path fill="#377eb8" stroke="#377eb8" stroke-opacity="0.0" stroke-width="0.0" d="M352.7139811480322 54.77847980387498 L352.7139811480322 54.77847980387498 L356.0139811480322 60.49424746885228 L349.4139811480322 60.49424746885228 Z" />
            <path fill="#377eb8" stroke="#377eb8" stroke-opacity="0.0" stroke-width="0.0" d="M277.0648699098483 70.78858081397603 L277.0648699098483 70.78858081397603 L280.3648699098483 76.50434847895332 L273.7648699098483 76.50434847895332 Z" />
            <path fill="#377eb8" stroke="#377eb8" stroke-opacity="0.0" stroke-width="0.0" d="M289.67305511621225 60.115180140575326 L289.67305511621225 60.115180140575326 L292.97305511621227 65.83094780555263 L286.37305511621224 65.83094780555263 Z" />
            <path fill="#377eb8" stroke="#377eb8" stroke-opacity="0.0" stroke-width="0.0" d="M258.1525921003024 84.13033165572683 L258.1525921003024 84.13033165572683 L261.4525921003024 89.84609932070413 L254.8525921003024 89.84609932070413 Z" />
            <path fill="#377eb8" stroke="#377eb8" stroke-opacity="0.0" stroke-width="0.0" d="M321.19351813212234 60.115180140575326 L321.19351813212234 60.115180140575326 L324.49351813212235 65.83094780555263 L317.8935181321223 65.83094780555263 Z" />
            <path fill="#377eb8" stroke="#377eb8" stroke-opacity="0.0" stroke-width="0.0" d="M258.1525921003024 108.14548317087836 L258.1525921003024 108.14548317087836 L261.4525921003024 113.86125083585566 L254.8525921003024 113.86125083585566 Z" />
            <path fill="#377eb8" stroke="#377eb8" stroke-opacity="0.0" stroke-width="0.0" d="M352.7139811480322 76.12528115067637 L352.7139811480322 76.12528115067637 L356.0139811480322 81.84104881565366 L349.4139811480322 81.84104881565366 Z" />
            <path fill="#377eb8" stroke="#377eb8" stroke-opacity="0.0" stroke-width="0.0" d="M302.2812403225762 81.46198148737666 L302.2812403225762 81.46198148737666 L305.5812403225762 87.17774915235395 L298.9812403225762 87.17774915235395 Z" />
            <path fill="#377eb8" stroke="#377eb8" stroke-opacity="0.0" stroke-width="0.0" d="M321.19351813212234 73.4569309823262 L321.19351813212234 73.4569309823262 L324.49351813212235 79.17269864730349 L317.8935181321223 79.17269864730349 Z" />
            <path fill="#377eb8" stroke="#377eb8" stroke-opacity="0.0" stroke-width="0.0" d="M245.54440689393846 113.48218350757868 L245.54440689393846 113.48218350757868 L248.84440689393844 119.19795117255597 L242.24440689393845 119.19795117255597 Z" />
            <path fill="#377eb8" stroke="#377eb8" stroke-opacity="0.0" stroke-width="0.0" d="M321.19351813212234 76.12528115067637 L321.19351813212234 76.12528115067637 L324.49351813212235 81.84104881565366 L317.8935181321223 81.84104881565366 Z" />
            <path fill="#377eb8" stroke="#377eb8" stroke-opacity="0.0" stroke-width="0.0" d="M245.54440689393846 105.47713300252819 L245.54440689393846 105.47713300252819 L248.84440689393844 111.19290066750548 L242.24440689393845 111.19290066750548 Z" />
            <path fill="#377eb8" stroke="#377eb8" stroke-opacity="0.0" stroke-width="0.0" d="M346.4098885448502 46.77342929882452 L346.4098885448502 46.77342929882452 L349.70988854485023 52.48919696380182 L343.1098885448502 52.48919696380182 Z" />
            <path fill="#377eb8" stroke="#377eb8" stroke-opacity="0.0" stroke-width="0.0" d="M245.54440689393846 118.81888384427903 L245.54440689393846 118.81888384427903 L248.84440689393844 124.53465150925632 L242.24440689393845 124.53465150925632 Z" />
            <path fill="#377eb8" stroke="#377eb8" stroke-opacity="0.0" stroke-width="0.0" d="M327.4976107353043 60.115180140575326 L327.4976107353043 60.115180140575326 L330.7976107353043 65.83094780555263 L324.1976107353043 65.83094780555263 Z" />
            <path fill="#377eb8" stroke="#377eb8" stroke-opacity="0.0" stroke-width="0.0" d="M283.3689625130303 108.14548317087836 L283.3689625130303 108.14548317087836 L286.6689625130303 113.86125083585566 L280.06896251303027 113.86125083585566 Z" />
            <path fill="#377eb8" stroke="#377eb8" stroke-opacity="0.0" stroke-width="0.0" d="M390.53853676712424 41.43672896212417 L390.53853676712424 41.43672896212417 L393.83853676712425 47.15249662710147 L387.23853676712423 47.15249662710147 Z" />
            <path fill="#377eb8" stroke="#377eb8" stroke-opacity="0.0" stroke-width="0.0" d="M314.88942552894036 92.13538216077735 L314.88942552894036 92.13538216077735 L318.1894255289404 97.85114982575465 L311.58942552894035 97.85114982575465 Z" />
            <path fill="#377eb8" stroke="#377eb8" stroke-opacity="0.0" stroke-width="0.0" d="M384.23444416394227 38.768378793774 L384.23444416394227 38.768378793774 L387.5344441639423 44.4841464587513 L380.93444416394226 44.4841464587513 Z" />
            <path fill="#377eb8" stroke="#377eb8" stroke-opacity="0.0" stroke-width="0.0" d="M283.3689625130303 94.80373232912753 L283.3689625130303 94.80373232912753 L286.6689625130303 100.51949999410482 L280.06896251303027 100.51949999410482 Z" />
            <path fill="#377eb8" stroke="#377eb8" stroke-opacity="0.0" stroke-width="0.0" d="M377.9303515607603 33.43167845707365 L377.9303515607603 33.43167845707365 L381.2303515607603 39.14744612205095 L374.6303515607603 39.14744612205095 Z" />
            <path fill="#377eb8" stroke="#377eb8" stroke-opacity="0.0" stroke-width="0.0" d="M321.19351813212234 92.13538216077735 L321.19351813212234 92.13538216077735 L324.49351813212235 97.85114982575465 L317.8935181321223 97.85114982575465 Z" />
            <path fill="#377eb8" stroke="#377eb8" stroke-opacity="0.0" stroke-width="0.0" d="M340.10579594166825 46.77342929882452 L340.10579594166825 46.77342929882452 L343.40579594166826 52.48919696380182 L336.80579594166824 52.48919696380182 Z" />
            <path fill="#377eb8" stroke="#377eb8" stroke-opacity="0.0" stroke-width="0.0" d="M295.9771477193942 89.46703199242718 L295.9771477193942 89.46703199242718 L299.27714771939424 95.18279965740447 L292.6771477193942 95.18279965740447 Z" />
            <path fill="#377eb8" stroke="#377eb8" stroke-opacity="0.0" stroke-width="0.0" d="M327.4976107353043 76.12528115067637 L327.4976107353043 76.12528115067637 L330.7976107353043 81.84104881565366 L324.1976107353043 81.84104881565366 Z" />
            <path fill="#377eb8" stroke="#377eb8" stroke-opacity="0.0" stroke-width="0.0" d="M327.4976107353043 70.78858081397603 L327.4976107353043 70.78858081397603 L330.7976107353043 76.50434847895332 L324.1976107353043 76.50434847895332 Z" />
            <path fill="#377eb8" stroke="#377eb8" stroke-opacity="0.0" stroke-width="0.0" d="M302.2812403225762 65.45188047727568 L302.2812403225762 65.45188047727568 L305.5812403225762 71.16764814225297 L298.9812403225762 71.16764814225297 Z" />
            <path fill="#377eb8" stroke="#377eb8" stroke-opacity="0.0" stroke-width="0.0" d="M295.9771477193942 92.13538216077735 L295.9771477193942 92.13538216077735 L299.27714771939424 97.85114982575465 L292.6771477193942 97.85114982575465 Z" />
            <path fill="#377eb8" stroke="#377eb8" stroke-opacity="0.0" stroke-width="0.0" d="M384.23444416394227 33.43167845707365 L384.23444416394227 33.43167845707365 L387.5344441639423 39.14744612205095 L380.93444416394226 39.14744612205095 Z" />
            <path fill="#377eb8" stroke="#377eb8" stroke-opacity="0.0" stroke-width="0.0" d="M251.84849949712043 97.4720824974777 L251.84849949712043 97.4720824974777 L255.1484994971204 103.18785016245499 L248.54849949712042 103.18785016245499 Z" />
            <path fill="#377eb8" stroke="#377eb8" stroke-opacity="0.0" stroke-width="0.0" d="M321.19351813212234 22.75827778367296 L321.19351813212234 22.75827778367296 L324.49351813212235 28.47404544865025 L317.8935181321223 28.47404544865025 Z" />
            <path fill="#377eb8" stroke="#377eb8" stroke-opacity="0.0" stroke-width="0.0" d="M289.67305511621225 89.46703199242718 L289.67305511621225 89.46703199242718 L292.97305511621227 95.18279965740447 L286.37305511621224 95.18279965740447 Z" />
            <path fill="#377eb8" stroke="#377eb8" stroke-opacity="0.0" stroke-width="0.0" d="M340.10579594166825 25.426627952023132 L340.10579594166825 25.426627952023132 L343.40579594166826 31.142395617000425 L336.80579594166824 31.142395617000425 Z" />
            <path fill="#377eb8" stroke="#377eb8" stroke-opacity="0.0" stroke-width="0.0" d="M270.76077730666634 96.13790741330261 L270.76077730666634 96.13790741330261 L274.06077730666635 101.8536750782799 L267.46077730666633 101.8536750782799 Z" />
            <path fill="#377eb8" stroke="#377eb8" stroke-opacity="0.0" stroke-width="0.0" d="M327.4976107353043 52.11012963552481 L327.4976107353043 52.11012963552481 L330.7976107353043 57.825897300502106 L324.1976107353043 57.825897300502106 Z" />
            <path fill="#377eb8" stroke="#377eb8" stroke-opacity="0.0" stroke-width="0.0" d="M270.76077730666634 90.80120707660227 L270.76077730666634 90.80120707660227 L274.06077730666635 96.51697474157956 L267.46077730666633 96.51697474157956 Z" />
            <path fill="#377eb8" stroke="#377eb8" stroke-opacity="0.0" stroke-width="0.0" d="M346.4098885448502 57.44682997222515 L346.4098885448502 57.44682997222515 L349.70988854485023 63.16259763720245 L343.1098885448502 63.16259763720245 Z" />
            <path fill="#377eb8" stroke="#377eb8" stroke-opacity="0.0" stroke-width="0.0" d="M270.76077730666634 89.46703199242718 L270.76077730666634 89.46703199242718 L274.06077730666635 95.18279965740447 L267.46077730666633 95.18279965740447 Z" />
            <path fill="#377eb8" stroke="#377eb8" stroke-opacity="0.0" stroke-width="0.0" d="M371.6262589575781 44.105079130474344 L371.6262589575781 44.105079130474344 L374.9262589575781 49.820846795451644 L368.3262589575781 49.820846795451644 Z" />
            <path fill="#377eb8" stroke="#377eb8" stroke-opacity="0.0" stroke-width="0.0" d="M308.5853329257584 97.4720824974777 L308.5853329257584 97.4720824974777 L311.8853329257584 103.18785016245499 L305.2853329257584 103.18785016245499 Z" />
            <path fill="#377eb8" stroke="#377eb8" stroke-opacity="0.0" stroke-width="0.0" d="M308.5853329257584 60.115180140575326 L308.5853329257584 60.115180140575326 L311.8853329257584 65.83094780555263 L305.2853329257584 65.83094780555263 Z" />
            <path fill="#377eb8" stroke="#377eb8" stroke-opacity="0.0" stroke-width="0.0" d="M270.76077730666634 82.79615657155178 L270.76077730666634 82.79615657155178 L274.06077730666635 88.51192423652907 L267.46077730666633 88.51192423652907 Z" />
            <path fill="#377eb8" stroke="#377eb8" stroke-opacity="0.0" stroke-width="0.0" d="M384.23444416394227 46.77342929882452 L384.23444416394227 46.77342929882452 L387.5344441639423 52.48919696380182 L380.93444416394226 52.48919696380182 Z" />
            <path fill="#377eb8" stroke="#377eb8" stroke-opacity="0.0" stroke-width="0.0" d="M308.5853329257584 78.79363131902649 L308.5853329257584 78.79363131902649 L311.8853329257584 84.50939898400378 L305.2853329257584 84.50939898400378 Z" />
            <path fill="#377eb8" stroke="#377eb8" stroke-opacity="0.0" stroke-width="0.0" d="M371.6262589575781 54.77847980387498 L371.6262589575781 54.77847980387498 L374.9262589575781 60.49424746885228 L368.3262589575781 60.49424746885228 Z" />
            <path fill="#377eb8" stroke="#377eb8" stroke-opacity="0.0" stroke-width="0.0" d="M270.76077730666634 89.46703199242718 L270.76077730666634 89.46703199242718 L274.06077730666635 95.18279965740447 L267.46077730666633 95.18279965740447 Z" />
            <path fill="#377eb8" stroke="#377eb8" stroke-opacity="0.0" stroke-width="0.0" d="M346.4098885448502 41.43672896212417 L346.4098885448502 41.43672896212417 L349.70988854485023 47.15249662710147 L343.1098885448502 47.15249662710147 Z" />
            <path fill="#377eb8" stroke="#377eb8" stroke-opacity="0.0" stroke-width="0.0" d="M283.3689625130303 84.13033165572683 L283.3689625130303 84.13033165572683 L286.6689625130303 89.84609932070413 L280.06896251303027 89.84609932070413 Z" />
            <path fill="#377eb8" stroke="#377eb8" stroke-opacity="0.0" stroke-width="0.0" d="M359.01807375121416 65.45188047727568 L359.01807375121416 65.45188047727568 L362.3180737512142 71.16764814225297 L355.71807375121415 71.16764814225297 Z" />
            <path fill="#377eb8" stroke="#377eb8" stroke-opacity="0.0" stroke-width="0.0" d="M295.9771477193942 80.1278064032016 L295.9771477193942 80.1278064032016 L299.27714771939424 85.8435740681789 L292.6771477193942 85.8435740681789 Z" />
            <path fill="#377eb8" stroke="#377eb8" stroke-opacity="0.0" stroke-width="0.0" d="M333.8017033384863 82.79615657155178 L333.8017033384863 82.79615657155178 L337.1017033384863 88.51192423652907 L330.50170333848627 88.51192423652907 Z" />
            <path fill="#377eb8" stroke="#377eb8" stroke-opacity="0.0" stroke-width="0.0" d="M214.02394387802838 96.13790741330261 L214.02394387802838 96.13790741330261 L217.32394387802836 101.8536750782799 L210.72394387802836 101.8536750782799 Z" />
            <path fill="#377eb8" stroke="#377eb8" stroke-opacity="0.0" stroke-width="0.0" d="M352.7139811480322 62.7835303089255 L352.7139811480322 62.7835303089255 L356.0139811480322 68.4992979739028 L349.4139811480322 68.4992979739028 Z" />
            <path fill="#377eb8" stroke="#377eb8" stroke-opacity="0.0" stroke-width="0.0" d="M314.88942552894036 84.13033165572683 L314.88942552894036 84.13033165572683 L318.1894255289404 89.84609932070413 L311.58942552894035 89.84609932070413 Z" />
            <path fill="#377eb8" stroke="#377eb8" stroke-opacity="0.0" stroke-width="0.0" d="M371.6262589575781 44.105079130474344 L371.6262589575781 44.105079130474344 L374.9262589575781 49.820846795451644 L368.3262589575781 49.820846795451644 Z" />
            <path fill="#377eb8" stroke="#377eb8" stroke-opacity="0.0" stroke-width="0.0" d="M289.67305511621225 77.45945623485143 L289.67305511621225 77.45945623485143 L292.97305511621227 83.17522389982872 L286.37305511621224 83.17522389982872 Z" />
            <path fill="#377eb8" stroke="#377eb8" stroke-opacity="0.0" stroke-width="0.0" d="M371.6262589575781 49.441779467174634 L371.6262589575781 49.441779467174634 L374.9262589575781 55.15754713215193 L368.3262589575781 55.15754713215193 Z" />
            <path fill="#377eb8" stroke="#377eb8" stroke-opacity="0.0" stroke-width="0.0" d="M295.9771477193942 90.80120707660227 L295.9771477193942 90.80120707660227 L299.27714771939424 96.51697474157956 L292.6771477193942 96.51697474157956 Z" />
            <path fill="#377eb8" stroke="#377eb8" stroke-opacity="0.0" stroke-width="0.0" d="M289.67305511621225 49.441779467174634 L289.67305511621225 49.441779467174634 L292.97305511621227 55.15754713215193 L286.37305511621224 55.15754713215193 Z" />
            <path fill="#377eb8" stroke="#377eb8" stroke-opacity="0.0" stroke-width="0.0" d="M258.1525921003024 92.13538216077735 L258.1525921003024 92.13538216077735 L261.4525921003024 97.85114982575465 L254.8525921003024 97.85114982575465 Z" />
            <path fill="#377eb8" stroke="#377eb8" stroke-opacity="0.0" stroke-width="0.0" d="M314.88942552894036 49.441779467174634 L314.88942552894036 49.441779467174634 L318.1894255289404 55.15754713215193 L311.58942552894035 55.15754713215193 Z" />
            <path fill="#377eb8" stroke="#377eb8" stroke-opacity="0.0" stroke-width="0.0" d="M245.54440689393846 98.80625758165276 L245.54440689393846 98.80625758165276 L248.84440689393844 104.52202524663005 L242.24440689393845 104.52202524663005 Z" />
            <path fill="#377eb8" stroke="#377eb8" stroke-opacity="0.0" stroke-width="0.0" d="M251.84849949712043 49.441779467174634 L251.84849949712043 49.441779467174634 L255.1484994971204 55.15754713215193 L248.54849949712042 55.15754713215193 Z" />
            <path fill="#377eb8" stroke="#377eb8" stroke-opacity="0.0" stroke-width="0.0" d="M295.9771477193942 76.12528115067637 L295.9771477193942 76.12528115067637 L299.27714771939424 81.84104881565366 L292.6771477193942 81.84104881565366 Z" />
            <path fill="#377eb8" stroke="#377eb8" stroke-opacity="0.0" stroke-width="0.0" d="M377.9303515607603 25.426627952023132 L377.9303515607603 25.426627952023132 L381.2303515607603 31.142395617000425 L374.6303515607603 31.142395617000425 Z" />
            <path fill="#377eb8" stroke="#377eb8" stroke-opacity="0.0" stroke-width="0.0" d="M277.0648699098483 94.80373232912753 L277.0648699098483 94.80373232912753 L280.3648699098483 100.51949999410482 L273.7648699098483 100.51949999410482 Z" />
            <path fill="#377eb8" stroke="#377eb8" stroke-opacity="0.0" stroke-width="0.0" d="M384.23444416394227 49.441779467174634 L384.23444416394227 49.441779467174634 L387.5344441639423 55.15754713215193 L380.93444416394226 55.15754713215193 Z" />
            <path fill="#377eb8" stroke="#377eb8" stroke-opacity="0.0" stroke-width="0.0" d="M302.2812403225762 109.47965825505345 L302.2812403225762 109.47965825505345 L305.5812403225762 115.19542592003074 L298.9812403225762 115.19542592003074 Z" />
            <path fill="#377eb8" stroke="#377eb8" stroke-opacity="0.0" stroke-width="0.0" d="M384.23444416394227 30.76332828872348 L384.23444416394227 30.76332828872348 L387.5344441639423 36.47909595370077 L380.93444416394226 36.47909595370077 Z" />
            <path fill="#377eb8" stroke="#377eb8" stroke-opacity="0.0" stroke-width="0.0" d="M302.2812403225762 82.79615657155178 L302.2812403225762 82.79615657155178 L305.5812403225762 88.51192423652907 L298.9812403225762 88.51192423652907 Z" />
            <path fill="#377eb8" stroke="#377eb8" stroke-opacity="0.0" stroke-width="0.0" d="M333.8017033384863 22.75827778367296 L333.8017033384863 22.75827778367296 L337.1017033384863 28.47404544865025 L330.50170333848627 28.47404544865025 Z" />
            <path fill="#377eb8" stroke="#377eb8" stroke-opacity="0.0" stroke-width="0.0" d="M283.3689625130303 80.1278064032016 L283.3689625130303 80.1278064032016 L286.6689625130303 85.8435740681789 L280.06896251303027 85.8435740681789 Z" />
            <path fill="#377eb8" stroke="#377eb8" stroke-opacity="0.0" stroke-width="0.0" d="M289.67305511621225 84.13033165572683 L289.67305511621225 84.13033165572683 L292.97305511621227 89.84609932070413 L286.37305511621224 89.84609932070413 Z" />
            <path fill="#377eb8" stroke="#377eb8" stroke-opacity="0.0" stroke-width="0.0" d="M333.8017033384863 36.100028625423825 L333.8017033384863 36.100028625423825 L337.1017033384863 41.815796290401124 L330.50170333848627 41.815796290401124 Z" />
            <path fill="#377eb8" stroke="#377eb8" stroke-opacity="0.0" stroke-width="0.0" d="M270.76077730666634 65.45188047727568 L270.76077730666634 65.45188047727568 L274.06077730666635 71.16764814225297 L267.46077730666633 71.16764814225297 Z" />
            <path fill="#377eb8" stroke="#377eb8" stroke-opacity="0.0" stroke-width="0.0" d="M277.0648699098483 54.77847980387498 L277.0648699098483 54.77847980387498 L280.3648699098483 60.49424746885228 L273.7648699098483 60.49424746885228 Z" />
          </g>
        </g>
      </g>
    </g>
    <g transform="translate(23.0 10.000000000000057 ) ">
      <g transform="translate(247.56371710447337 266.33333333333326 ) ">
        <text class="facet-strip-text-x" text-anchor="middle" dy="0.35em">
        Dream
        </text>
      </g>
      <g transform="translate(42.99591213121782 492.6666666666665 ) ">
        <line x1="69.02981400484259" y1="-0.0" x2="69.02981400484259" y2="-211.3333333333333" stroke="rgb(233,233,233)" stroke-opacity="1.0" stroke-width="1.0">
        </line>
        <line x1="132.07074003666253" y1="-0.0" x2="132.07074003666253" y2="-211.3333333333333" stroke="rgb(233,233,233)" stroke-opacity="1.0" stroke-width="1.0">
        </line>
        <line x1="195.11166606848246" y1="-0.0" x2="195.11166606848246" y2="-211.3333333333333" stroke="rgb(233,233,233)" stroke-opacity="1.0" stroke-width="1.0">
        </line>
        <line x1="258.1525921003024" y1="-0.0" x2="258.1525921003024" y2="-211.3333333333333" stroke="rgb(233,233,233)" stroke-opacity="1.0" stroke-width="1.0">
        </line>
        <line x1="321.19351813212234" y1="-0.0" x2="321.19351813212234" y2="-211.3333333333333" stroke="rgb(233,233,233)" stroke-opacity="1.0" stroke-width="1.0">
        </line>
        <line x1="384.23444416394227" y1="-0.0" x2="384.23444416394227" y2="-211.3333333333333" stroke="rgb(233,233,233)" stroke-opacity="1.0" stroke-width="1.0">
        </line>
      </g>
      <g transform="translate(42.99591213121782 281.33333333333326 ) ">
        <line x1="0.0" y1="185.71717171717168" x2="409.13560994651107" y2="185.71717171717168" stroke="rgb(233,233,233)" stroke-opacity="1.0" stroke-width="1.0">
        </line>
        <line x1="0.0" y1="132.35016835016833" x2="409.13560994651107" y2="132.35016835016833" stroke="rgb(233,233,233)" stroke-opacity="1.0" stroke-width="1.0">
        </line>
        <line x1="0.0" y1="78.98316498316501" x2="409.13560994651107" y2="78.98316498316501" stroke="rgb(233,233,233)" stroke-opacity="1.0" stroke-width="1.0">
        </line>
        <line x1="0.0" y1="25.616161616161605" x2="409.13560994651107" y2="25.616161616161605" stroke="rgb(233,233,233)" stroke-opacity="1.0" stroke-width="1.0">
        </line>
        <g transform="translate(0.0 185.71717171717168 ) ">
          <g transform="translate(-3.0 0.0 ) ">
            <text class="axis-text-y" text-anchor="end" dy="0.35em">
            3,000
            </text>
          </g>
        </g>
        <g transform="translate(0.0 132.35016835016833 ) ">
          <g transform="translate(-3.0 0.0 ) ">
            <text class="axis-text-y" text-anchor="end" dy="0.35em">
            4,000
            </text>
          </g>
        </g>
        <g transform="translate(0.0 78.98316498316501 ) ">
          <g transform="translate(-3.0 0.0 ) ">
            <text class="axis-text-y" text-anchor="end" dy="0.35em">
            5,000
            </text>
          </g>
        </g>
        <g transform="translate(0.0 25.616161616161605 ) ">
          <g transform="translate(-3.0 0.0 ) ">
            <text class="axis-text-y" text-anchor="end" dy="0.35em">
            6,000
            </text>
          </g>
        </g>
      </g>
      <g transform="translate(42.99591213121782 281.33333333333326 ) " clip-path="url(#c2Xbo2u)" clip-bounds-jfx="[rect (0.0, 0.0), (409.13560994651107, 211.3333333333333)]">
        <defs>
          <clipPath id="c2Xbo2u">
            <rect x="0.0" y="0.0" width="409.13560994651107" height="211.3333333333333">
            </rect>
          </clipPath>
        </defs>
        <g>
          
          <g >
            <rect fill="#e41a1c" stroke="#e41a1c" stroke-opacity="0.0" stroke-width="0.0" x="53.12162879847865" y="169.07542087542083" height="6.6000000000000005" width="6.6000000000000005" />
            <rect fill="#e41a1c" stroke="#e41a1c" stroke-opacity="0.0" stroke-width="0.0" x="53.12162879847865" y="134.38686868686867" height="6.6000000000000005" width="6.6000000000000005" />
            <rect fill="#e41a1c" stroke="#e41a1c" stroke-opacity="0.0" stroke-width="0.0" x="116.16255483029859" y="166.4070707070707" height="6.6000000000000005" width="6.6000000000000005" />
            <rect fill="#e41a1c" stroke="#e41a1c" stroke-opacity="0.0" stroke-width="0.0" x="90.9461844175707" y="134.38686868686867" height="6.6000000000000005" width="6.6000000000000005" />
            <rect fill="#e41a1c" stroke="#e41a1c" stroke-opacity="0.0" stroke-width="0.0" x="160.2912030525726" y="165.0728956228956" height="6.6000000000000005" width="6.6000000000000005" />
            <rect fill="#e41a1c" stroke="#e41a1c" stroke-opacity="0.0" stroke-width="0.0" x="166.59529565575457" y="121.04511784511784" height="6.6000000000000005" width="6.6000000000000005" />
            <rect fill="#e41a1c" stroke="#e41a1c" stroke-opacity="0.0" stroke-width="0.0" x="128.77074003666252" y="131.7185185185185" height="6.6000000000000005" width="6.6000000000000005" />
            <rect fill="#e41a1c" stroke="#e41a1c" stroke-opacity="0.0" stroke-width="0.0" x="65.7298140048426" y="153.06531986531985" height="6.6000000000000005" width="6.6000000000000005" />
            <rect fill="#e41a1c" stroke="#e41a1c" stroke-opacity="0.0" stroke-width="0.0" x="72.03390660802457" y="166.4070707070707" height="6.6000000000000005" width="6.6000000000000005" />
            <rect fill="#e41a1c" stroke="#e41a1c" stroke-opacity="0.0" stroke-width="0.0" x="90.9461844175707" y="94.36161616161617" height="6.6000000000000005" width="6.6000000000000005" />
            <rect fill="#e41a1c" stroke="#e41a1c" stroke-opacity="0.0" stroke-width="0.0" x="78.33799921120654" y="174.41212121212118" height="6.6000000000000005" width="6.6000000000000005" />
            <rect fill="#e41a1c" stroke="#e41a1c" stroke-opacity="0.0" stroke-width="0.0" x="160.2912030525726" y="134.38686868686867" height="6.6000000000000005" width="6.6000000000000005" />
            <rect fill="#e41a1c" stroke="#e41a1c" stroke-opacity="0.0" stroke-width="0.0" x="103.55436962393465" y="177.08047138047135" height="6.6000000000000005" width="6.6000000000000005" />
            <rect fill="#e41a1c" stroke="#e41a1c" stroke-opacity="0.0" stroke-width="0.0" x="166.59529565575457" y="107.703367003367" height="6.6000000000000005" width="6.6000000000000005" />
            <rect fill="#e41a1c" stroke="#e41a1c" stroke-opacity="0.0" stroke-width="0.0" x="97.25027702075268" y="182.41717171717167" height="6.6000000000000005" width="6.6000000000000005" />
            <rect fill="#e41a1c" stroke="#e41a1c" stroke-opacity="0.0" stroke-width="0.0" x="128.77074003666252" y="97.02996632996634" height="6.6000000000000005" width="6.6000000000000005" />
            <rect fill="#e41a1c" stroke="#e41a1c" stroke-opacity="0.0" stroke-width="0.0" x="78.33799921120654" y="159.73619528619525" height="6.6000000000000005" width="6.6000000000000005" />
            <rect fill="#e41a1c" stroke="#e41a1c" stroke-opacity="0.0" stroke-width="0.0" x="59.425721401660624" y="183.75134680134676" height="6.6000000000000005" width="6.6000000000000005" />
            <rect fill="#e41a1c" stroke="#e41a1c" stroke-opacity="0.0" stroke-width="0.0" x="128.77074003666252" y="158.40202020202017" height="6.6000000000000005" width="6.6000000000000005" />
            <rect fill="#e41a1c" stroke="#e41a1c" stroke-opacity="0.0" stroke-width="0.0" x="135.0748326398445" y="121.04511784511784" height="6.6000000000000005" width="6.6000000000000005" />
            <rect fill="#e41a1c" stroke="#e41a1c" stroke-opacity="0.0" stroke-width="0.0" x="135.0748326398445" y="163.73872053872051" height="6.6000000000000005" width="6.6000000000000005" />
            <rect fill="#e41a1c" stroke="#e41a1c" stroke-opacity="0.0" stroke-width="0.0" x="153.9871104493904" y="153.06531986531985" height="6.6000000000000005" width="6.6000000000000005" />
            <rect fill="#e41a1c" stroke="#e41a1c" stroke-opacity="0.0" stroke-width="0.0" x="128.77074003666252" y="139.72356902356898" height="6.6000000000000005" width="6.6000000000000005" />
            <rect fill="#e41a1c" stroke="#e41a1c" stroke-opacity="0.0" stroke-width="0.0" x="122.46664743348056" y="155.73367003367" height="6.6000000000000005" width="6.6000000000000005" />
            <rect fill="#e41a1c" stroke="#e41a1c" stroke-opacity="0.0" stroke-width="0.0" x="122.46664743348056" y="131.7185185185185" height="6.6000000000000005" width="6.6000000000000005" />
            <rect fill="#e41a1c" stroke="#e41a1c" stroke-opacity="0.0" stroke-width="0.0" x="128.77074003666252" y="150.39696969696968" height="6.6000000000000005" width="6.6000000000000005" />
            <rect fill="#e41a1c" stroke="#e41a1c" stroke-opacity="0.0" stroke-width="0.0" x="204.4198512748464" y="153.06531986531985" height="6.6000000000000005" width="6.6000000000000005" />
            <rect fill="#e41a1c" stroke="#e41a1c" stroke-opacity="0.0" stroke-width="0.0" x="223.3321290843923" y="113.04006734006732" height="6.6000000000000005" width="6.6000000000000005" />
            <rect fill="#e41a1c" stroke="#e41a1c" stroke-opacity="0.0" stroke-width="0.0" x="97.25027702075268" y="161.07037037037034" height="6.6000000000000005" width="6.6000000000000005" />
            <rect fill="#e41a1c" stroke="#e41a1c" stroke-opacity="0.0" stroke-width="0.0" x="103.55436962393465" y="105.03501683501683" height="6.6000000000000005" width="6.6000000000000005" />
            <rect fill="#e41a1c" stroke="#e41a1c" stroke-opacity="0.0" stroke-width="0.0" x="109.85846222711662" y="166.4070707070707" height="6.6000000000000005" width="6.6000000000000005" />
            <rect fill="#e41a1c" stroke="#e41a1c" stroke-opacity="0.0" stroke-width="0.0" x="242.24440689393845" y="113.04006734006732" height="6.6000000000000005" width="6.6000000000000005" />
            <rect fill="#e41a1c" stroke="#e41a1c" stroke-opacity="0.0" stroke-width="0.0" x="128.77074003666252" y="145.06026936026933" height="6.6000000000000005" width="6.6000000000000005" />
            <rect fill="#e41a1c" stroke="#e41a1c" stroke-opacity="0.0" stroke-width="0.0" x="166.59529565575457" y="110.37171717171718" height="6.6000000000000005" width="6.6000000000000005" />
            <rect fill="#e41a1c" stroke="#e41a1c" stroke-opacity="0.0" stroke-width="0.0" x="53.12162879847865" y="187.75387205387202" height="6.6000000000000005" width="6.6000000000000005" />
            <rect fill="#e41a1c" stroke="#e41a1c" stroke-opacity="0.0" stroke-width="0.0" x="141.37892524302646" y="123.71346801346802" height="6.6000000000000005" width="6.6000000000000005" />
            <rect fill="#e41a1c" stroke="#e41a1c" stroke-opacity="0.0" stroke-width="0.0" x="147.68301784620843" y="155.73367003367" height="6.6000000000000005" width="6.6000000000000005" />
            <rect fill="#e41a1c" stroke="#e41a1c" stroke-opacity="0.0" stroke-width="0.0" x="185.50757346530048" y="103.70084175084175" height="6.6000000000000005" width="6.6000000000000005" />
            <rect fill="#e41a1c" stroke="#e41a1c" stroke-opacity="0.0" stroke-width="0.0" x="109.85846222711662" y="159.73619528619525" height="6.6000000000000005" width="6.6000000000000005" />
            <rect fill="#e41a1c" stroke="#e41a1c" stroke-opacity="0.0" stroke-width="0.0" x="128.77074003666252" y="134.38686868686867" height="6.6000000000000005" width="6.6000000000000005" />
            <rect fill="#e41a1c" stroke="#e41a1c" stroke-opacity="0.0" stroke-width="0.0" x="135.0748326398445" y="173.0779461279461" height="6.6000000000000005" width="6.6000000000000005" />
            <rect fill="#e41a1c" stroke="#e41a1c" stroke-opacity="0.0" stroke-width="0.0" x="191.81166606848245" y="130.3843434343434" height="6.6000000000000005" width="6.6000000000000005" />
            <rect fill="#e41a1c" stroke="#e41a1c" stroke-opacity="0.0" stroke-width="0.0" x="97.25027702075268" y="161.07037037037034" height="6.6000000000000005" width="6.6000000000000005" />
            <rect fill="#e41a1c" stroke="#e41a1c" stroke-opacity="0.0" stroke-width="0.0" x="147.68301784620843" y="115.7084175084175" height="6.6000000000000005" width="6.6000000000000005" />
            <rect fill="#e41a1c" stroke="#e41a1c" stroke-opacity="0.0" stroke-width="0.0" x="147.68301784620843" y="161.07037037037034" height="6.6000000000000005" width="6.6000000000000005" />
            <rect fill="#e41a1c" stroke="#e41a1c" stroke-opacity="0.0" stroke-width="0.0" x="109.85846222711662" y="157.06784511784508" height="6.6000000000000005" width="6.6000000000000005" />
            <rect fill="#e41a1c" stroke="#e41a1c" stroke-opacity="0.0" stroke-width="0.0" x="116.16255483029859" y="179.74882154882152" height="6.6000000000000005" width="6.6000000000000005" />
            <rect fill="#e41a1c" stroke="#e41a1c" stroke-opacity="0.0" stroke-width="0.0" x="128.77074003666252" y="143.72609427609424" height="6.6000000000000005" width="6.6000000000000005" />
            <rect fill="#e41a1c" stroke="#e41a1c" stroke-opacity="0.0" stroke-width="0.0" x="141.37892524302646" y="182.41717171717167" height="6.6000000000000005" width="6.6000000000000005" />
            <rect fill="#e41a1c" stroke="#e41a1c" stroke-opacity="0.0" stroke-width="0.0" x="97.25027702075268" y="147.7286195286195" height="6.6000000000000005" width="6.6000000000000005" />
            <rect fill="#e41a1c" stroke="#e41a1c" stroke-opacity="0.0" stroke-width="0.0" x="128.77074003666252" y="115.7084175084175" height="6.6000000000000005" width="6.6000000000000005" />
            <rect fill="#e41a1c" stroke="#e41a1c" stroke-opacity="0.0" stroke-width="0.0" x="90.9461844175707" y="157.06784511784508" height="6.6000000000000005" width="6.6000000000000005" />
            <rect fill="#e41a1c" stroke="#e41a1c" stroke-opacity="0.0" stroke-width="0.0" x="160.2912030525726" y="158.40202020202017" height="6.6000000000000005" width="6.6000000000000005" />
            <rect fill="#e41a1c" stroke="#e41a1c" stroke-opacity="0.0" stroke-width="0.0" x="147.68301784620843" y="142.39191919191916" height="6.6000000000000005" width="6.6000000000000005" />
            <rect fill="#e41a1c" stroke="#e41a1c" stroke-opacity="0.0" stroke-width="0.0" x="109.85846222711662" y="145.06026936026933" height="6.6000000000000005" width="6.6000000000000005" />
            <rect fill="#e41a1c" stroke="#e41a1c" stroke-opacity="0.0" stroke-width="0.0" x="198.11575867166442" y="129.05016835016832" height="6.6000000000000005" width="6.6000000000000005" />
            <rect fill="#4daf4a" stroke="#4daf4a" stroke-opacity="0.0" stroke-width="0.0" x="141.37892524302646" y="155.73367003367" height="6.6000000000000005" width="6.6000000000000005" />
            <rect fill="#4daf4a" stroke="#4daf4a" stroke-opacity="0.0" stroke-width="0.0" x="166.59529565575457" y="134.38686868686867" height="6.6000000000000005" width="6.6000000000000005" />
            <rect fill="#4daf4a" stroke="#4daf4a" stroke-opacity="0.0" stroke-width="0.0" x="147.68301784620843" y="147.7286195286195" height="6.6000000000000005" width="6.6000000000000005" />
            <rect fill="#4daf4a" stroke="#4daf4a" stroke-opacity="0.0" stroke-width="0.0" x="116.16255483029859" y="154.3994949494949" height="6.6000000000000005" width="6.6000000000000005" />
            <rect fill="#4daf4a" stroke="#4daf4a" stroke-opacity="0.0" stroke-width="0.0" x="172.89938825893654" y="143.72609427609424" height="6.6000000000000005" width="6.6000000000000005" />
            <rect fill="#4daf4a" stroke="#4daf4a" stroke-opacity="0.0" stroke-width="0.0" x="179.2034808621185" y="131.7185185185185" height="6.6000000000000005" width="6.6000000000000005" />
            <rect fill="#4daf4a" stroke="#4daf4a" stroke-opacity="0.0" stroke-width="0.0" x="53.12162879847865" y="169.07542087542083" height="6.6000000000000005" width="6.6000000000000005" />
            <rect fill="#4daf4a" stroke="#4daf4a" stroke-opacity="0.0" stroke-width="0.0" x="172.89938825893654" y="142.39191919191916" height="6.6000000000000005" width="6.6000000000000005" />
            <rect fill="#4daf4a" stroke="#4daf4a" stroke-opacity="0.0" stroke-width="0.0" x="160.2912030525726" y="121.04511784511784" height="6.6000000000000005" width="6.6000000000000005" />
            <rect fill="#4daf4a" stroke="#4daf4a" stroke-opacity="0.0" stroke-width="0.0" x="179.2034808621185" y="145.06026936026933" height="6.6000000000000005" width="6.6000000000000005" />
            <rect fill="#4daf4a" stroke="#4daf4a" stroke-opacity="0.0" stroke-width="0.0" x="147.68301784620843" y="139.72356902356898" height="6.6000000000000005" width="6.6000000000000005" />
            <rect fill="#4daf4a" stroke="#4daf4a" stroke-opacity="0.0" stroke-width="0.0" x="153.9871104493904" y="141.05774410774407" height="6.6000000000000005" width="6.6000000000000005" />
            <rect fill="#4daf4a" stroke="#4daf4a" stroke-opacity="0.0" stroke-width="0.0" x="97.25027702075268" y="145.06026936026933" height="6.6000000000000005" width="6.6000000000000005" />
            <rect fill="#4daf4a" stroke="#4daf4a" stroke-opacity="0.0" stroke-width="0.0" x="198.11575867166442" y="126.38181818181816" height="6.6000000000000005" width="6.6000000000000005" />
            <rect fill="#4daf4a" stroke="#4daf4a" stroke-opacity="0.0" stroke-width="0.0" x="128.77074003666252" y="151.73114478114476" height="6.6000000000000005" width="6.6000000000000005" />
            <rect fill="#4daf4a" stroke="#4daf4a" stroke-opacity="0.0" stroke-width="0.0" x="198.11575867166442" y="126.38181818181816" height="6.6000000000000005" width="6.6000000000000005" />
            <rect fill="#4daf4a" stroke="#4daf4a" stroke-opacity="0.0" stroke-width="0.0" x="172.89938825893654" y="166.4070707070707" height="6.6000000000000005" width="6.6000000000000005" />
            <rect fill="#4daf4a" stroke="#4daf4a" stroke-opacity="0.0" stroke-width="0.0" x="72.03390660802457" y="145.06026936026933" height="6.6000000000000005" width="6.6000000000000005" />
            <rect fill="#4daf4a" stroke="#4daf4a" stroke-opacity="0.0" stroke-width="0.0" x="128.77074003666252" y="158.40202020202017" height="6.6000000000000005" width="6.6000000000000005" />
            <rect fill="#4daf4a" stroke="#4daf4a" stroke-opacity="0.0" stroke-width="0.0" x="160.2912030525726" y="107.703367003367" height="6.6000000000000005" width="6.6000000000000005" />
            <rect fill="#4daf4a" stroke="#4daf4a" stroke-opacity="0.0" stroke-width="0.0" x="72.03390660802457" y="150.39696969696968" height="6.6000000000000005" width="6.6000000000000005" />
            <rect fill="#4daf4a" stroke="#4daf4a" stroke-opacity="0.0" stroke-width="0.0" x="135.0748326398445" y="161.07037037037034" height="6.6000000000000005" width="6.6000000000000005" />
            <rect fill="#4daf4a" stroke="#4daf4a" stroke-opacity="0.0" stroke-width="0.0" x="109.85846222711662" y="187.75387205387202" height="6.6000000000000005" width="6.6000000000000005" />
            <rect fill="#4daf4a" stroke="#4daf4a" stroke-opacity="0.0" stroke-width="0.0" x="147.68301784620843" y="139.72356902356898" height="6.6000000000000005" width="6.6000000000000005" />
            <rect fill="#4daf4a" stroke="#4daf4a" stroke-opacity="0.0" stroke-width="0.0" x="160.2912030525726" y="166.4070707070707" height="6.6000000000000005" width="6.6000000000000005" />
            <rect fill="#4daf4a" stroke="#4daf4a" stroke-opacity="0.0" stroke-width="0.0" x="172.89938825893654" y="121.04511784511784" height="6.6000000000000005" width="6.6000000000000005" />
            <rect fill="#4daf4a" stroke="#4daf4a" stroke-opacity="0.0" stroke-width="0.0" x="191.81166606848245" y="161.07037037037034" height="6.6000000000000005" width="6.6000000000000005" />
            <rect fill="#4daf4a" stroke="#4daf4a" stroke-opacity="0.0" stroke-width="0.0" x="191.81166606848245" y="139.72356902356898" height="6.6000000000000005" width="6.6000000000000005" />
            <rect fill="#4daf4a" stroke="#4daf4a" stroke-opacity="0.0" stroke-width="0.0" x="135.0748326398445" y="145.06026936026933" height="6.6000000000000005" width="6.6000000000000005" />
            <rect fill="#4daf4a" stroke="#4daf4a" stroke-opacity="0.0" stroke-width="0.0" x="223.3321290843923" y="99.69831649831649" height="6.6000000000000005" width="6.6000000000000005" />
            <rect fill="#4daf4a" stroke="#4daf4a" stroke-opacity="0.0" stroke-width="0.0" x="109.85846222711662" y="171.743771043771" height="6.6000000000000005" width="6.6000000000000005" />
            <rect fill="#4daf4a" stroke="#4daf4a" stroke-opacity="0.0" stroke-width="0.0" x="198.11575867166442" y="113.04006734006732" height="6.6000000000000005" width="6.6000000000000005" />
            <rect fill="#4daf4a" stroke="#4daf4a" stroke-opacity="0.0" stroke-width="0.0" x="109.85846222711662" y="163.73872053872051" height="6.6000000000000005" width="6.6000000000000005" />
            <rect fill="#4daf4a" stroke="#4daf4a" stroke-opacity="0.0" stroke-width="0.0" x="210.72394387802836" y="123.71346801346802" height="6.6000000000000005" width="6.6000000000000005" />
            <rect fill="#4daf4a" stroke="#4daf4a" stroke-opacity="0.0" stroke-width="0.0" x="160.2912030525726" y="150.39696969696968" height="6.6000000000000005" width="6.6000000000000005" />
            <rect fill="#4daf4a" stroke="#4daf4a" stroke-opacity="0.0" stroke-width="0.0" x="185.50757346530048" y="134.38686868686867" height="6.6000000000000005" width="6.6000000000000005" />
            <rect fill="#4daf4a" stroke="#4daf4a" stroke-opacity="0.0" stroke-width="0.0" x="160.2912030525726" y="137.05521885521884" height="6.6000000000000005" width="6.6000000000000005" />
            <rect fill="#4daf4a" stroke="#4daf4a" stroke-opacity="0.0" stroke-width="0.0" x="254.8525921003024" y="86.35656565656565" height="6.6000000000000005" width="6.6000000000000005" />
            <rect fill="#4daf4a" stroke="#4daf4a" stroke-opacity="0.0" stroke-width="0.0" x="141.37892524302646" y="198.42727272727268" height="6.6000000000000005" width="6.6000000000000005" />
            <rect fill="#4daf4a" stroke="#4daf4a" stroke-opacity="0.0" stroke-width="0.0" x="223.3321290843923" y="102.36666666666666" height="6.6000000000000005" width="6.6000000000000005" />
            <rect fill="#4daf4a" stroke="#4daf4a" stroke-opacity="0.0" stroke-width="0.0" x="254.8525921003024" y="131.7185185185185" height="6.6000000000000005" width="6.6000000000000005" />
            <rect fill="#4daf4a" stroke="#4daf4a" stroke-opacity="0.0" stroke-width="0.0" x="109.85846222711662" y="147.7286195286195" height="6.6000000000000005" width="6.6000000000000005" />
            <rect fill="#4daf4a" stroke="#4daf4a" stroke-opacity="0.0" stroke-width="0.0" x="166.59529565575457" y="153.06531986531985" height="6.6000000000000005" width="6.6000000000000005" />
            <rect fill="#4daf4a" stroke="#4daf4a" stroke-opacity="0.0" stroke-width="0.0" x="166.59529565575457" y="155.73367003367" height="6.6000000000000005" width="6.6000000000000005" />
            <rect fill="#4daf4a" stroke="#4daf4a" stroke-opacity="0.0" stroke-width="0.0" x="166.59529565575457" y="146.39444444444442" height="6.6000000000000005" width="6.6000000000000005" />
            <rect fill="#4daf4a" stroke="#4daf4a" stroke-opacity="0.0" stroke-width="0.0" x="198.11575867166442" y="105.03501683501683" height="6.6000000000000005" width="6.6000000000000005" />
            <rect fill="#4daf4a" stroke="#4daf4a" stroke-opacity="0.0" stroke-width="0.0" x="128.77074003666252" y="161.07037037037034" height="6.6000000000000005" width="6.6000000000000005" />
            <rect fill="#4daf4a" stroke="#4daf4a" stroke-opacity="0.0" stroke-width="0.0" x="267.46077730666633" y="113.04006734006732" height="6.6000000000000005" width="6.6000000000000005" />
            <rect fill="#4daf4a" stroke="#4daf4a" stroke-opacity="0.0" stroke-width="0.0" x="109.85846222711662" y="169.07542087542083" height="6.6000000000000005" width="6.6000000000000005" />
            <rect fill="#4daf4a" stroke="#4daf4a" stroke-opacity="0.0" stroke-width="0.0" x="179.2034808621185" y="146.39444444444442" height="6.6000000000000005" width="6.6000000000000005" />
            <rect fill="#4daf4a" stroke="#4daf4a" stroke-opacity="0.0" stroke-width="0.0" x="185.50757346530048" y="165.0728956228956" height="6.6000000000000005" width="6.6000000000000005" />
            <rect fill="#4daf4a" stroke="#4daf4a" stroke-opacity="0.0" stroke-width="0.0" x="198.11575867166442" y="131.7185185185185" height="6.6000000000000005" width="6.6000000000000005" />
            <rect fill="#4daf4a" stroke="#4daf4a" stroke-opacity="0.0" stroke-width="0.0" x="147.68301784620843" y="150.39696969696968" height="6.6000000000000005" width="6.6000000000000005" />
            <rect fill="#4daf4a" stroke="#4daf4a" stroke-opacity="0.0" stroke-width="0.0" x="210.72394387802836" y="126.38181818181816" height="6.6000000000000005" width="6.6000000000000005" />
            <rect fill="#4daf4a" stroke="#4daf4a" stroke-opacity="0.0" stroke-width="0.0" x="109.85846222711662" y="163.73872053872051" height="6.6000000000000005" width="6.6000000000000005" />
            <rect fill="#4daf4a" stroke="#4daf4a" stroke-opacity="0.0" stroke-width="0.0" x="172.89938825893654" y="158.40202020202017" height="6.6000000000000005" width="6.6000000000000005" />
            <rect fill="#4daf4a" stroke="#4daf4a" stroke-opacity="0.0" stroke-width="0.0" x="135.0748326398445" y="169.07542087542083" height="6.6000000000000005" width="6.6000000000000005" />
            <rect fill="#4daf4a" stroke="#4daf4a" stroke-opacity="0.0" stroke-width="0.0" x="210.72394387802836" y="126.38181818181816" height="6.6000000000000005" width="6.6000000000000005" />
            <rect fill="#4daf4a" stroke="#4daf4a" stroke-opacity="0.0" stroke-width="0.0" x="204.4198512748464" y="139.72356902356898" height="6.6000000000000005" width="6.6000000000000005" />
            <rect fill="#4daf4a" stroke="#4daf4a" stroke-opacity="0.0" stroke-width="0.0" x="153.9871104493904" y="154.3994949494949" height="6.6000000000000005" width="6.6000000000000005" />
            <rect fill="#4daf4a" stroke="#4daf4a" stroke-opacity="0.0" stroke-width="0.0" x="229.6362216875745" y="131.7185185185185" height="6.6000000000000005" width="6.6000000000000005" />
            <rect fill="#4daf4a" stroke="#4daf4a" stroke-opacity="0.0" stroke-width="0.0" x="122.46664743348056" y="147.7286195286195" height="6.6000000000000005" width="6.6000000000000005" />
            <rect fill="#4daf4a" stroke="#4daf4a" stroke-opacity="0.0" stroke-width="0.0" x="160.2912030525726" y="147.7286195286195" height="6.6000000000000005" width="6.6000000000000005" />
            <rect fill="#4daf4a" stroke="#4daf4a" stroke-opacity="0.0" stroke-width="0.0" x="235.94031429075648" y="129.05016835016832" height="6.6000000000000005" width="6.6000000000000005" />
            <rect fill="#4daf4a" stroke="#4daf4a" stroke-opacity="0.0" stroke-width="0.0" x="204.4198512748464" y="161.07037037037034" height="6.6000000000000005" width="6.6000000000000005" />
            <rect fill="#4daf4a" stroke="#4daf4a" stroke-opacity="0.0" stroke-width="0.0" x="147.68301784620843" y="141.05774410774407" height="6.6000000000000005" width="6.6000000000000005" />
            <rect fill="#4daf4a" stroke="#4daf4a" stroke-opacity="0.0" stroke-width="0.0" x="254.8525921003024" y="123.71346801346802" height="6.6000000000000005" width="6.6000000000000005" />
            <rect fill="#4daf4a" stroke="#4daf4a" stroke-opacity="0.0" stroke-width="0.0" x="179.2034808621185" y="141.05774410774407" height="6.6000000000000005" width="6.6000000000000005" />
          </g>
        </g>
      </g>
    </g>
    <g transform="translate(23.0 10.000000000000057 ) ">
      <g transform="translate(247.56371710447337 517.6666666666665 ) ">
        <text class="facet-strip-text-x" text-anchor="middle" dy="0.35em">
        Torgersen
        </text>
      </g>
      <g transform="translate(42.99591213121782 743.9999999999998 ) ">
        <line x1="69.02981400484259" y1="-0.0" x2="69.02981400484259" y2="-211.3333333333333" stroke="rgb(233,233,233)" stroke-opacity="1.0" stroke-width="1.0">
        </line>
        <line x1="132.07074003666253" y1="-0.0" x2="132.07074003666253" y2="-211.3333333333333" stroke="rgb(233,233,233)" stroke-opacity="1.0" stroke-width="1.0">
        </line>
        <line x1="195.11166606848246" y1="-0.0" x2="195.11166606848246" y2="-211.3333333333333" stroke="rgb(233,233,233)" stroke-opacity="1.0" stroke-width="1.0">
        </line>
        <line x1="258.1525921003024" y1="-0.0" x2="258.1525921003024" y2="-211.3333333333333" stroke="rgb(233,233,233)" stroke-opacity="1.0" stroke-width="1.0">
        </line>
        <line x1="321.19351813212234" y1="-0.0" x2="321.19351813212234" y2="-211.3333333333333" stroke="rgb(233,233,233)" stroke-opacity="1.0" stroke-width="1.0">
        </line>
        <line x1="384.23444416394227" y1="-0.0" x2="384.23444416394227" y2="-211.3333333333333" stroke="rgb(233,233,233)" stroke-opacity="1.0" stroke-width="1.0">
        </line>
        <g transform="translate(5.988887973022656 0.0 ) ">
          <line stroke-width="1.0" stroke="rgb(71,71,71)" stroke-opacity="1.0" x2="0.0" y2="4.0">
          </line>
          <g transform="translate(0.0 7.0 ) ">
            <text class="axis-text-x" text-anchor="middle" dy="0.7em">
            170
            </text>
          </g>
        </g>
        <g transform="translate(69.02981400484259 0.0 ) ">
          <line stroke-width="1.0" stroke="rgb(71,71,71)" stroke-opacity="1.0" x2="0.0" y2="4.0">
          </line>
          <g transform="translate(0.0 7.0 ) ">
            <text class="axis-text-x" text-anchor="middle" dy="0.7em">
            180
            </text>
          </g>
        </g>
        <g transform="translate(132.07074003666253 0.0 ) ">
          <line stroke-width="1.0" stroke="rgb(71,71,71)" stroke-opacity="1.0" x2="0.0" y2="4.0">
          </line>
          <g transform="translate(0.0 7.0 ) ">
            <text class="axis-text-x" text-anchor="middle" dy="0.7em">
            190
            </text>
          </g>
        </g>
        <g transform="translate(195.11166606848246 0.0 ) ">
          <line stroke-width="1.0" stroke="rgb(71,71,71)" stroke-opacity="1.0" x2="0.0" y2="4.0">
          </line>
          <g transform="translate(0.0 7.0 ) ">
            <text class="axis-text-x" text-anchor="middle" dy="0.7em">
            200
            </text>
          </g>
        </g>
        <g transform="translate(258.1525921003024 0.0 ) ">
          <line stroke-width="1.0" stroke="rgb(71,71,71)" stroke-opacity="1.0" x2="0.0" y2="4.0">
          </line>
          <g transform="translate(0.0 7.0 ) ">
            <text class="axis-text-x" text-anchor="middle" dy="0.7em">
            210
            </text>
          </g>
        </g>
        <g transform="translate(321.19351813212234 0.0 ) ">
          <line stroke-width="1.0" stroke="rgb(71,71,71)" stroke-opacity="1.0" x2="0.0" y2="4.0">
          </line>
          <g transform="translate(0.0 7.0 ) ">
            <text class="axis-text-x" text-anchor="middle" dy="0.7em">
            220
            </text>
          </g>
        </g>
        <g transform="translate(384.23444416394227 0.0 ) ">
          <line stroke-width="1.0" stroke="rgb(71,71,71)" stroke-opacity="1.0" x2="0.0" y2="4.0">
          </line>
          <g transform="translate(0.0 7.0 ) ">
            <text class="axis-text-x" text-anchor="middle" dy="0.7em">
            230
            </text>
          </g>
        </g>
        <line x1="0.0" y1="0.0" x2="409.13560994651107" y2="0.0" stroke-width="1.0" stroke="rgb(71,71,71)" stroke-opacity="1.0">
        </line>
      </g>
      <g transform="translate(42.99591213121782 532.6666666666665 ) ">
        <line x1="0.0" y1="185.71717171717168" x2="409.13560994651107" y2="185.71717171717168" stroke="rgb(233,233,233)" stroke-opacity="1.0" stroke-width="1.0">
        </line>
        <line x1="0.0" y1="132.35016835016833" x2="409.13560994651107" y2="132.35016835016833" stroke="rgb(233,233,233)" stroke-opacity="1.0" stroke-width="1.0">
        </line>
        <line x1="0.0" y1="78.98316498316501" x2="409.13560994651107" y2="78.98316498316501" stroke="rgb(233,233,233)" stroke-opacity="1.0" stroke-width="1.0">
        </line>
        <line x1="0.0" y1="25.616161616161605" x2="409.13560994651107" y2="25.616161616161605" stroke="rgb(233,233,233)" stroke-opacity="1.0" stroke-width="1.0">
        </line>
        <g transform="translate(0.0 185.71717171717168 ) ">
          <g transform="translate(-3.0 0.0 ) ">
            <text class="axis-text-y" text-anchor="end" dy="0.35em">
            3,000
            </text>
          </g>
        </g>
        <g transform="translate(0.0 132.35016835016833 ) ">
          <g transform="translate(-3.0 0.0 ) ">
            <text class="axis-text-y" text-anchor="end" dy="0.35em">
            4,000
            </text>
          </g>
        </g>
        <g transform="translate(0.0 78.98316498316501 ) ">
          <g transform="translate(-3.0 0.0 ) ">
            <text class="axis-text-y" text-anchor="end" dy="0.35em">
            5,000
            </text>
          </g>
        </g>
        <g transform="translate(0.0 25.616161616161605 ) ">
          <g transform="translate(-3.0 0.0 ) ">
            <text class="axis-text-y" text-anchor="end" dy="0.35em">
            6,000
            </text>
          </g>
        </g>
      </g>
      <g transform="translate(42.99591213121782 532.6666666666665 ) " clip-path="url(#cci6uVC)" clip-bounds-jfx="[rect (0.0, 0.0), (409.13560994651107, 211.3333333333333)]">
        <defs>
          <clipPath id="cci6uVC">
            <rect x="0.0" y="0.0" width="409.13560994651107" height="211.3333333333333">
            </rect>
          </clipPath>
        </defs>
        <g>
          
          <g >
            <circle fill="#e41a1c" stroke="#e41a1c" stroke-opacity="0.0" stroke-width="0.0" cx="75.33390660802456" cy="145.69191919191917" r="3.3000000000000003" />
            <circle fill="#e41a1c" stroke="#e41a1c" stroke-opacity="0.0" stroke-width="0.0" cx="106.85436962393464" cy="143.023569023569" r="3.3000000000000003" />
            <circle fill="#e41a1c" stroke="#e41a1c" stroke-opacity="0.0" stroke-width="0.0" cx="163.5912030525726" cy="172.37542087542084" r="3.3000000000000003" />
            <circle fill="#e41a1c" stroke="#e41a1c" stroke-opacity="0.0" stroke-width="0.0" cx="150.98301784620844" cy="161.70202020202018" r="3.3000000000000003" />
            <circle fill="#e41a1c" stroke="#e41a1c" stroke-opacity="0.0" stroke-width="0.0" cx="132.07074003666253" cy="151.02861952861952" r="3.3000000000000003" />
            <circle fill="#e41a1c" stroke="#e41a1c" stroke-opacity="0.0" stroke-width="0.0" cx="75.33390660802456" cy="152.3627946127946" r="3.3000000000000003" />
            <circle fill="#e41a1c" stroke="#e41a1c" stroke-opacity="0.0" stroke-width="0.0" cx="163.5912030525726" cy="96.32744107744108" r="3.3000000000000003" />
            <circle fill="#e41a1c" stroke="#e41a1c" stroke-opacity="0.0" stroke-width="0.0" cx="150.98301784620844" cy="160.3678451178451" r="3.3000000000000003" />
            <circle fill="#e41a1c" stroke="#e41a1c" stroke-opacity="0.0" stroke-width="0.0" cx="132.07074003666253" cy="119.0084175084175" r="3.3000000000000003" />
            <circle fill="#e41a1c" stroke="#e41a1c" stroke-opacity="0.0" stroke-width="0.0" cx="106.85436962393464" cy="169.7070707070707" r="3.3000000000000003" />
            <circle fill="#e41a1c" stroke="#e41a1c" stroke-opacity="0.0" stroke-width="0.0" cx="69.02981400484259" cy="148.36026936026934" r="3.3000000000000003" />
            <circle fill="#e41a1c" stroke="#e41a1c" stroke-opacity="0.0" stroke-width="0.0" cx="81.63799921120653" cy="175.04377104377102" r="3.3000000000000003" />
            <circle fill="#e41a1c" stroke="#e41a1c" stroke-opacity="0.0" stroke-width="0.0" cx="138.3748326398445" cy="143.023569023569" r="3.3000000000000003" />
            <circle fill="#e41a1c" stroke="#e41a1c" stroke-opacity="0.0" stroke-width="0.0" cx="182.50348086211852" cy="111.003367003367" r="3.3000000000000003" />
            <circle fill="#e41a1c" stroke="#e41a1c" stroke-opacity="0.0" stroke-width="0.0" cx="100.55027702075267" cy="148.36026936026934" r="3.3000000000000003" />
            <circle fill="#e41a1c" stroke="#e41a1c" stroke-opacity="0.0" stroke-width="0.0" cx="163.5912030525726" cy="161.70202020202018" r="3.3000000000000003" />
            <circle fill="#e41a1c" stroke="#e41a1c" stroke-opacity="0.0" stroke-width="0.0" cx="176.19938825893655" cy="105.66666666666666" r="3.3000000000000003" />
            <circle fill="#e41a1c" stroke="#e41a1c" stroke-opacity="0.0" stroke-width="0.0" cx="94.2461844175707" cy="168.3728956228956" r="3.3000000000000003" />
            <circle fill="#e41a1c" stroke="#e41a1c" stroke-opacity="0.0" stroke-width="0.0" cx="157.2871104493904" cy="121.67676767676767" r="3.3000000000000003" />
            <circle fill="#e41a1c" stroke="#e41a1c" stroke-opacity="0.0" stroke-width="0.0" cx="132.07074003666253" cy="183.04882154882154" r="3.3000000000000003" />
            <circle fill="#e41a1c" stroke="#e41a1c" stroke-opacity="0.0" stroke-width="0.0" cx="182.50348086211852" cy="108.33501683501683" r="3.3000000000000003" />
            <circle fill="#e41a1c" stroke="#e41a1c" stroke-opacity="0.0" stroke-width="0.0" cx="132.07074003666253" cy="153.6969696969697" r="3.3000000000000003" />
            <circle fill="#e41a1c" stroke="#e41a1c" stroke-opacity="0.0" stroke-width="0.0" cx="132.07074003666253" cy="137.68686868686868" r="3.3000000000000003" />
            <circle fill="#e41a1c" stroke="#e41a1c" stroke-opacity="0.0" stroke-width="0.0" cx="169.89529565575458" cy="156.36531986531986" r="3.3000000000000003" />
            <circle fill="#e41a1c" stroke="#e41a1c" stroke-opacity="0.0" stroke-width="0.0" cx="176.19938825893655" cy="124.34511784511784" r="3.3000000000000003" />
            <circle fill="#e41a1c" stroke="#e41a1c" stroke-opacity="0.0" stroke-width="0.0" cx="132.07074003666253" cy="148.36026936026934" r="3.3000000000000003" />
            <circle fill="#e41a1c" stroke="#e41a1c" stroke-opacity="0.0" stroke-width="0.0" cx="163.5912030525726" cy="119.0084175084175" r="3.3000000000000003" />
            <circle fill="#e41a1c" stroke="#e41a1c" stroke-opacity="0.0" stroke-width="0.0" cx="138.3748326398445" cy="148.36026936026934" r="3.3000000000000003" />
            <circle fill="#e41a1c" stroke="#e41a1c" stroke-opacity="0.0" stroke-width="0.0" cx="94.2461844175707" cy="137.68686868686868" r="3.3000000000000003" />
            <circle fill="#e41a1c" stroke="#e41a1c" stroke-opacity="0.0" stroke-width="0.0" cx="113.15846222711662" cy="156.36531986531986" r="3.3000000000000003" />
            <circle fill="#e41a1c" stroke="#e41a1c" stroke-opacity="0.0" stroke-width="0.0" cx="163.5912030525726" cy="132.35016835016833" r="3.3000000000000003" />
            <circle fill="#e41a1c" stroke="#e41a1c" stroke-opacity="0.0" stroke-width="0.0" cx="125.76664743348056" cy="175.04377104377102" r="3.3000000000000003" />
            <circle fill="#e41a1c" stroke="#e41a1c" stroke-opacity="0.0" stroke-width="0.0" cx="169.89529565575458" cy="94.993265993266" r="3.3000000000000003" />
            <circle fill="#e41a1c" stroke="#e41a1c" stroke-opacity="0.0" stroke-width="0.0" cx="113.15846222711662" cy="143.023569023569" r="3.3000000000000003" />
            <circle fill="#e41a1c" stroke="#e41a1c" stroke-opacity="0.0" stroke-width="0.0" cx="150.98301784620844" cy="121.67676767676767" r="3.3000000000000003" />
            <circle fill="#e41a1c" stroke="#e41a1c" stroke-opacity="0.0" stroke-width="0.0" cx="119.46255483029859" cy="191.05387205387203" r="3.3000000000000003" />
            <circle fill="#e41a1c" stroke="#e41a1c" stroke-opacity="0.0" stroke-width="0.0" cx="188.8075734653005" cy="144.35774410774408" r="3.3000000000000003" />
            <circle fill="#e41a1c" stroke="#e41a1c" stroke-opacity="0.0" stroke-width="0.0" cx="125.76664743348056" cy="167.03872053872053" r="3.3000000000000003" />
            <circle fill="#e41a1c" stroke="#e41a1c" stroke-opacity="0.0" stroke-width="0.0" cx="125.76664743348056" cy="168.3728956228956" r="3.3000000000000003" />
            <circle fill="#e41a1c" stroke="#e41a1c" stroke-opacity="0.0" stroke-width="0.0" cx="113.15846222711662" cy="177.7121212121212" r="3.3000000000000003" />
            <circle fill="#e41a1c" stroke="#e41a1c" stroke-opacity="0.0" stroke-width="0.0" cx="182.50348086211852" cy="159.03367003367" r="3.3000000000000003" />
            <circle fill="#e41a1c" stroke="#e41a1c" stroke-opacity="0.0" stroke-width="0.0" cx="43.81344359211471" cy="161.70202020202018" r="3.3000000000000003" />
            <circle fill="#e41a1c" stroke="#e41a1c" stroke-opacity="0.0" stroke-width="0.0" cx="207.7198512748464" cy="139.02104377104376" r="3.3000000000000003" />
            <circle fill="#e41a1c" stroke="#e41a1c" stroke-opacity="0.0" stroke-width="0.0" cx="106.85436962393464" cy="183.04882154882154" r="3.3000000000000003" />
            <circle fill="#e41a1c" stroke="#e41a1c" stroke-opacity="0.0" stroke-width="0.0" cx="188.8075734653005" cy="132.35016835016833" r="3.3000000000000003" />
            <circle fill="#e41a1c" stroke="#e41a1c" stroke-opacity="0.0" stroke-width="0.0" cx="138.3748326398445" cy="171.04124579124576" r="3.3000000000000003" />
            <circle fill="#e41a1c" stroke="#e41a1c" stroke-opacity="0.0" stroke-width="0.0" cx="163.5912030525726" cy="116.34006734006732" r="3.3000000000000003" />
            <circle fill="#e41a1c" stroke="#e41a1c" stroke-opacity="0.0" stroke-width="0.0" cx="138.3748326398445" cy="183.04882154882154" r="3.3000000000000003" />
            <circle fill="#e41a1c" stroke="#e41a1c" stroke-opacity="0.0" stroke-width="0.0" cx="258.1525921003024" cy="132.35016835016833" r="3.3000000000000003" />
            <circle fill="#e41a1c" stroke="#e41a1c" stroke-opacity="0.0" stroke-width="0.0" cx="132.07074003666253" cy="168.3728956228956" r="3.3000000000000003" />
            <circle fill="#e41a1c" stroke="#e41a1c" stroke-opacity="0.0" stroke-width="0.0" cx="176.19938825893655" cy="159.03367003367" r="3.3000000000000003" />
          </g>
        </g>
      </g>
    </g>
    <g transform="translate(14.5 396.99999999999983 ) rotate(-90.0 ) ">
      <text class="axis-title-y" y="0.0" text-anchor="middle">
      body_mass_g
      </text>
    </g>
    <g transform="translate(270.56371710447337 791.4999999999998 ) ">
      <text class="axis-title-x" y="0.0" text-anchor="middle">
      flipper_length_mm
      </text>
    </g>
    <g transform="translate(485.1315220777289 285.49999999999994 ) ">
      <rect x="5.0" y="5.0" height="101.5" width="101.96136277614791" stroke="rgb(71,71,71)" stroke-opacity="1.0" stroke-width="0.0" fill="rgb(255,255,255)" fill-opacity="1.0">
      </rect>
      <g transform="translate(10.0 10.0 ) ">
        <g transform="translate(0.0 10.5 ) ">
          <text class="legend-title" y="0.0">
          species
          </text>
        </g>
        <g transform="translate(0.0 22.5 ) ">
          <g transform="">
            <g>
              <rect x="0.0" y="0.0" height="23.0" width="23.0" stroke-width="0.0" fill="rgb(255,255,255)" fill-opacity="1.0">
              </rect>
              <g transform="translate(1.0 1.0 ) ">
                <g>
                  
                  <g >
                    <circle fill="#e41a1c" stroke="#e41a1c" stroke-opacity="0.0" stroke-width="0.0" cx="10.5" cy="10.5" r="5.5" />
                  </g>
                </g>
              </g>
              <rect x="0.0" y="0.0" height="23.0" width="23.0" stroke="rgb(255,255,255)" stroke-opacity="1.0" stroke-width="1.0" fill-opacity="0.0">
              </rect>
            </g>
            <g transform="translate(26.9903027277341 16.05 ) ">
              <text class="legend-item" y="0.0">
              Adelie
              </text>
            </g>
          </g>
          <g transform="translate(0.0 23.0 ) ">
            <g>
              <rect x="0.0" y="0.0" height="23.0" width="23.0" stroke-width="0.0" fill="rgb(255,255,255)" fill-opacity="1.0">
              </rect>
              <g transform="translate(1.0 1.0 ) ">
                <g>
                  
                  <g >
                    <circle fill="#377eb8" stroke="#377eb8" stroke-opacity="0.0" stroke-width="0.0" cx="10.5" cy="10.5" r="5.5" />
                  </g>
                </g>
              </g>
              <rect x="0.0" y="0.0" height="23.0" width="23.0" stroke="rgb(255,255,255)" stroke-opacity="1.0" stroke-width="1.0" fill-opacity="0.0">
              </rect>
            </g>
            <g transform="translate(26.9903027277341 16.05 ) ">
              <text class="legend-item" y="0.0">
              Gentoo
              </text>
            </g>
          </g>
          <g transform="translate(0.0 46.0 ) ">
            <g>
              <rect x="0.0" y="0.0" height="23.0" width="23.0" stroke-width="0.0" fill="rgb(255,255,255)" fill-opacity="1.0">
              </rect>
              <g transform="translate(1.0 1.0 ) ">
                <g>
                  
                  <g >
                    <circle fill="#4daf4a" stroke="#4daf4a" stroke-opacity="0.0" stroke-width="0.0" cx="10.5" cy="10.5" r="5.5" />
                  </g>
                </g>
              </g>
              <rect x="0.0" y="0.0" height="23.0" width="23.0" stroke="rgb(255,255,255)" stroke-opacity="1.0" stroke-width="1.0" fill-opacity="0.0">
              </rect>
            </g>
            <g transform="translate(26.9903027277341 16.05 ) ">
              <text class="legend-item" y="0.0">
              Chinstrap
              </text>
            </g>
          </g>
        </g>
      </g>
    </g>
    <g transform="translate(485.1315220777289 396.99999999999994 ) ">
      <rect x="5.0" y="5.0" height="101.5" width="104.8684779222711" stroke="rgb(71,71,71)" stroke-opacity="1.0" stroke-width="0.0" fill="rgb(255,255,255)" fill-opacity="1.0">
      </rect>
      <g transform="translate(10.0 10.0 ) ">
        <g transform="translate(0.0 10.5 ) ">
          <text class="legend-title" y="0.0">
          island
          </text>
        </g>
        <g transform="translate(0.0 22.5 ) ">
          <g transform="">
            <g>
              <rect x="0.0" y="0.0" height="23.0" width="23.0" stroke-width="0.0" fill="rgb(255,255,255)" fill-opacity="1.0">
              </rect>
              <g transform="translate(1.0 1.0 ) ">
                <g>
                  
                  <g >
                    <circle fill="#474747" stroke="#474747" stroke-opacity="0.0" stroke-width="0.0" cx="10.5" cy="10.5" r="5.5" />
                  </g>
                </g>
              </g>
              <rect x="0.0" y="0.0" height="23.0" width="23.0" stroke="rgb(255,255,255)" stroke-opacity="1.0" stroke-width="1.0" fill-opacity="0.0">
              </rect>
            </g>
            <g transform="translate(26.9903027277341 16.05 ) ">
              <text class="legend-item" y="0.0">
              Torgersen
              </text>
            </g>
          </g>
          <g transform="translate(0.0 23.0 ) ">
            <g>
              <rect x="0.0" y="0.0" height="23.0" width="23.0" stroke-width="0.0" fill="rgb(255,255,255)" fill-opacity="1.0">
              </rect>
              <g transform="translate(1.0 1.0 ) ">
                <g>
                  
                  <g >
                    <path fill="#474747" stroke="#474747" stroke-opacity="0.0" stroke-width="0.0" d="M10.5 5.736860279185588 L10.5 5.736860279185588 L16.0 15.263139720814412 L5.0 15.263139720814412 Z" />
                  </g>
                </g>
              </g>
              <rect x="0.0" y="0.0" height="23.0" width="23.0" stroke="rgb(255,255,255)" stroke-opacity="1.0" stroke-width="1.0" fill-opacity="0.0">
              </rect>
            </g>
            <g transform="translate(26.9903027277341 16.05 ) ">
              <text class="legend-item" y="0.0">
              Biscoe
              </text>
            </g>
          </g>
          <g transform="translate(0.0 46.0 ) ">
            <g>
              <rect x="0.0" y="0.0" height="23.0" width="23.0" stroke-width="0.0" fill="rgb(255,255,255)" fill-opacity="1.0">
              </rect>
              <g transform="translate(1.0 1.0 ) ">
                <g>
                  
                  <g >
                    <rect fill="#474747" stroke="#474747" stroke-opacity="0.0" stroke-width="0.0" x="5.0" y="5.0" height="11.0" width="11.0" />
                  </g>
                </g>
              </g>
              <rect x="0.0" y="0.0" height="23.0" width="23.0" stroke="rgb(255,255,255)" stroke-opacity="1.0" stroke-width="1.0" fill-opacity="0.0">
              </rect>
            </g>
            <g transform="translate(26.9903027277341 16.05 ) ">
              <text class="legend-item" y="0.0">
              Dream
              </text>
            </g>
          </g>
        </g>
      </g>
    </g>
  </g>
  <g id="dBgRMWK">
  </g>
</svg>